<?xml version="1.0" standalone="no"?>
<!DOCTYPE svg PUBLIC "-//W3C//DTD SVG 1.1//EN" "http://www.w3.org/Graphics/SVG/1.1/DTD/svg11.dtd" >
<svg xmlns="http://www.w3.org/2000/svg">
<metadata>Generated by IcoMoon</metadata>
<defs>
<font id="icomoon" horiz-adv-x="1024">
<font-face units-per-em="1024" ascent="960" descent="-64" />
<missing-glyph horiz-adv-x="1024" />
<glyph unicode="&#x20;" horiz-adv-x="512" d="" />
<glyph unicode="&#xe900;" glyph-name="k_arrow_bracketsDown" d="M524.002 130.689c-36.209-3.958-73.811 7.906-101.57 35.729l-386.233 387.22c-48.589 48.718-48.589 127.705 0 176.423 48.598 48.718 127.382 48.718 175.98 0l299.958-300.715 299.34 300.106c48.543 48.663 127.253 48.663 175.796 0 48.543-48.672 48.543-127.585 0-176.248l-385.513-386.5c-21.689-21.744-49.41-33.7-77.759-36.015z" />
<glyph unicode="&#xe901;" glyph-name="k_arrow_bracketsLeft" d="M230.308 358.718l387.21-386.233c48.718-48.598 127.705-48.598 176.423 0s48.718 127.382 0 175.98l-300.715 299.949 300.106 299.34c48.663 48.552 48.663 127.253 0 175.796-48.672 48.552-127.576 48.552-176.248 0l-386.491-385.513c-21.753-21.689-33.709-49.401-36.015-77.759-3.967-36.209 7.897-73.802 35.729-101.561z" />
<glyph unicode="&#xe902;" glyph-name="k_arrow_bracketsRight" d="M793.425 358.718l-387.109-386.233c-48.7-48.598-127.668-48.598-176.377 0-48.7 48.598-48.7 127.382 0 175.98l300.641 299.949-300.023 299.34c-48.654 48.552-48.654 127.253 0 175.796 48.654 48.552 127.539 48.552 176.193 0l386.389-385.513c21.735-21.689 33.691-49.401 36.006-77.759 3.958-36.209-7.897-73.802-35.72-101.561z" />
<glyph unicode="&#xe903;" glyph-name="k_arrow_bracketsUp" d="M422.432 729.701l-386.223-387.1c-48.598-48.709-48.598-127.677 0-176.377 48.589-48.709 127.382-48.709 175.971 0l299.958 300.632 299.34-300.023c48.543-48.654 127.253-48.654 175.796 0s48.543 127.539 0 176.193l-385.513 386.389c-21.689 21.744-49.41 33.7-77.759 36.006-36.209 3.967-73.811-7.897-101.57-35.72z" />
<glyph unicode="&#xe904;" glyph-name="k_arrow_circle_down" d="M512-64c-282.769 0-512 229.231-512 512s229.231 512 512 512c282.769 0 512-229.231 512-512s-229.231-512-512-512zM512 823.467c-207.369 0-375.467-168.098-375.467-375.467 0-207.36 168.098-375.467 375.467-375.467 207.36 0 375.467 168.107 375.467 375.467 0 207.369-168.107 375.467-375.467 375.467zM554.368 151.637c-11.255-11.426-25.643-17.707-40.354-18.927-18.79-2.082-38.306 4.156-52.71 18.773l-200.448 203.426c-25.225 25.6-25.225 67.098 0 92.689 12.297 12.484 27.179 19.174 43.307 19.174 6.588 0 58.436 0 122.863 0 0 120.294 0 191.249 0 221.508 0 47.164 26.283 75.46 76.433 75.46 3.012 0 5.76 0 8.363 0 48.358 0 76.433-27.119 76.433-75.46 0-36.471 0-103.279 0-221.508 62.114 0 111.548 0 118.076 0 17.075 0 35.081-6.272 48.111-19.499 25.199-25.566 25.199-67.021 0-92.587l-200.073-203.051z" />
<glyph unicode="&#xe905;" glyph-name="k_arrow_circle_left" d="M512-64c-282.769 0-512 229.231-512 512s229.231 512 512 512c282.769 0 512-229.231 512-512s-229.231-512-512-512zM512 823.467c-207.369 0-375.467-168.098-375.467-375.467 0-207.36 168.098-375.467 375.467-375.467 207.36 0 375.467 168.107 375.467 375.467 0 207.369-168.107 375.467-375.467 375.467zM752.282 363.221c-30.268 0-101.222 0-221.508 0 0-64.435 0-116.284 0-122.871 0-16.128-6.69-31.002-19.174-43.307-25.6-25.225-67.098-25.225-92.689 0l-203.426 200.448c-14.626 14.404-20.855 33.92-18.773 52.71 1.212 14.711 7.501 29.099 18.918 40.354l203.051 200.081c25.574 25.19 67.029 25.19 92.595 0 13.227-13.030 19.499-31.036 19.499-48.119 0-6.528 0-55.962 0-118.076 118.221 0 185.037 0 221.508 0 48.333 0 75.452-28.075 75.452-76.433 0-2.603 0-5.342 0-8.363 0-50.15-28.297-76.425-75.452-76.425z" />
<glyph unicode="&#xe906;" glyph-name="k_arrow_circle_right" d="M512-64c-282.769 0-512 229.231-512 512s229.231 512 512 512c282.769 0 512-229.231 512-512s-229.231-512-512-512zM512 823.467c-207.369 0-375.467-168.098-375.467-375.467 0-207.36 168.098-375.467 375.467-375.467 207.36 0 375.467 168.107 375.467 375.467 0 207.369-168.107 375.467-375.467 375.467zM808.516 405.871l-203.426-200.516c-25.6-25.225-67.098-25.225-92.689 0-12.484 12.305-19.174 27.187-19.174 43.324 0 6.588 0 58.453 0 122.914-120.294 0-191.249 0-221.508 0-47.164 0-75.46 26.291-75.46 76.459 0 3.012 0 5.76 0 8.363 0 48.375 27.119 76.459 75.46 76.459 36.471 0 103.279 0 221.508 0 0 62.14 0 111.582 0 118.118 0 17.084 6.272 35.098 19.499 48.128 25.566 25.207 67.021 25.207 92.587 0l203.051-200.149c11.426-11.255 17.707-25.643 18.927-40.371 2.082-18.79-4.156-38.315-18.773-52.727z" />
<glyph unicode="&#xe907;" glyph-name="k_arrow_circle_up" d="M512-64c-282.769 0-512 229.231-512 512s229.231 512 512 512c282.769 0 512-229.231 512-512s-229.231-512-512-512zM512 823.467c-207.369 0-375.467-168.098-375.467-375.467 0-207.36 168.098-375.467 375.467-375.467 207.36 0 375.467 168.107 375.467 375.467 0 207.369-168.107 375.467-375.467 375.467zM711.117 429.227c-6.588 0-58.436 0-122.863 0 0-120.286 0-191.241 0-221.508 0-47.155-26.283-75.452-76.433-75.452-3.012 0-5.76 0-8.363 0-48.358 0-76.433 27.119-76.433 75.452 0 36.471 0 103.287 0 221.508-62.114 0-111.548 0-118.076 0-17.084 0-35.089 6.272-48.119 19.499-25.19 25.566-25.19 67.021 0 92.595l200.081 203.051c11.255 11.418 25.643 17.707 40.354 18.918 18.79 2.082 38.306-4.147 52.71-18.773l200.448-203.426c25.225-25.591 25.225-67.089 0-92.689-12.305-12.484-27.179-19.174-43.307-19.174z" />
<glyph unicode="&#xe908;" glyph-name="k_arrow_dbBracketsDown" d="M578.674 382.36c-0.009-0.009-0.019-0.028-0.028-0.038-34.588-34.816-89.306-36.987-126.407-6.523-0.559 0.455-1.071 0.996-1.612 1.47-1.896 1.621-3.774 3.262-5.566 5.054l-412.871 415.649c-36.892 37.129-36.892 97.337 0 134.476 36.883 37.139 96.692 37.139 133.585 0l346.074-348.407 346.084 348.407c36.892 37.139 96.702 37.139 133.585 0 36.892-37.129 36.892-97.337 0-134.476l-412.843-415.611zM165.774 514.048l346.074-348.407 346.084 348.407c36.892 37.139 96.702 37.139 133.585 0 36.892-37.129 36.892-97.337 0-134.476l-412.843-415.611c-0.009-0.009-0.019-0.019-0.028-0.028-36.892-37.139-96.692-37.139-133.585 0l-412.871 415.64c-36.892 37.139-36.892 97.346 0 134.476 36.883 37.139 96.692 37.139 133.585 0z" />
<glyph unicode="&#xe909;" glyph-name="k_arrow_dbBracketsLeft" d="M647.756 448.152l348.407-346.084c37.129-36.892 37.129-96.692 0-133.585-37.139-36.883-97.346-36.883-134.476 0l-415.621 412.843c-0.009 0.009-0.019 0.019-0.028 0.028-30.17 29.971-35.831 75.074-16.972 110.725 0.597 1.119 1.318 2.19 1.963 3.3 0.929 1.583 1.801 3.195 2.825 4.741 1.1 1.65 2.351 3.224 3.565 4.817 0.711 0.939 1.346 1.915 2.095 2.825 1.451 1.783 3.072 3.461 4.684 5.148 0.626 0.664 1.185 1.375 1.839 2.029v0c0 0 0 0 0 0s0 0 0 0l415.649 412.871c37.129 36.892 97.337 36.892 134.476 0 37.129-36.883 37.129-96.692 0-133.575l-348.407-346.084zM229.357 448.152l348.407-346.084c37.139-36.892 37.139-96.692 0-133.585-37.129-36.883-97.337-36.883-134.476 0l-415.602 412.833c-0.009 0.019-0.028 0.028-0.047 0.038-37.129 36.892-37.129 96.702 0 133.585l415.649 412.871c37.129 36.892 97.337 36.892 134.476 0 37.139-36.883 37.139-96.692 0-133.575l-348.407-346.084z" />
<glyph unicode="&#xe90a;" glyph-name="k_arrow_dbBracketsRight" d="M1014.026 410.548c-4.627-11.416-11.567-22.111-20.831-31.365 0-0.009-0.009-0.009-0.009-0.019l-414.426-414.417c-37.025-37.035-97.062-37.035-134.087 0-37.035 37.025-37.035 97.052 0 134.087l347.392 347.392-347.392 347.401c-37.035 37.025-37.035 97.062 0 134.087 37.025 37.025 97.062 37.025 134.087 0l414.407-414.417c0.009-0.009 0.019-0.019 0.028-0.028 27.771-27.771 34.721-68.475 20.831-102.722zM576.019 513.271c27.771-27.771 34.712-68.475 20.821-102.722-4.627-11.416-11.567-22.111-20.831-31.365 0-0.009-0.009-0.009-0.009-0.019l-414.426-414.417c-37.025-37.035-97.062-37.035-134.087 0-37.035 37.025-37.035 97.052 0 134.087l347.392 347.392-347.392 347.401c-37.035 37.025-37.035 97.062 0 134.087 37.025 37.025 97.052 37.025 134.087 0l414.407-414.417c0.009-0.009 0.028-0.019 0.038-0.028z" />
<glyph unicode="&#xe90b;" glyph-name="k_arrow_dbBracketsUp" d="M857.932 382.246l-346.084 348.407-346.084-348.407c-36.883-37.139-96.692-37.139-133.575 0-36.892 37.129-36.892 97.337 0 134.476l412.843 415.611c0.009 0.009 0.019 0.028 0.028 0.038 32.275 32.493 82.1 36.551 118.765 12.184 5.234-3.489 10.202-7.547 14.82-12.193 0 0 0.009-0.009 0.009-0.009l412.862-415.63c36.883-37.139 36.883-97.346 0-134.476-36.892-37.139-96.692-37.139-133.585 0zM445.013 513.925c0.019 0.019 0.028 0.028 0.047 0.047 29.971 30.17 75.074 35.831 110.715 16.972 8.23-4.352 15.948-10.012 22.869-16.972 0-0.009 0.009-0.009 0.009-0.019l412.862-415.63c36.883-37.129 36.883-97.337 0-134.476-36.892-37.129-96.692-37.129-133.585 0l-346.084 348.407-346.084-348.407c-36.883-37.139-96.692-37.139-133.575 0-36.892 37.139-36.892 97.346 0 134.476l412.824 415.602z" />
<glyph unicode="&#xe90c;" glyph-name="k_arrow_down" horiz-adv-x="759" d="M264.439 852.215c0-43.238 0-266.505 0-438.349-92.041 0-166.11 0-175.522 0-23.040 0-44.297-9.557-61.867-27.392-36.028-36.565-36.028-95.846 0-132.412l286.353-290.611c20.574-20.881 48.452-29.79 75.298-26.812 21.018 1.732 41.574 10.709 57.651 27.025l285.824 290.074c35.994 36.531 35.994 95.753 0 132.275-18.611 18.893-44.339 27.853-68.736 27.853-9.327 0-79.94 0-168.678 0 0 168.892 0 386.244 0 438.349 0 69.052-40.107 107.793-109.193 107.793-3.712 0-7.637 0-11.938 0-71.646 0-109.193-40.422-109.193-107.793z" />
<glyph unicode="&#xe90d;" glyph-name="k_arrow_first" d="M105.993-46.035c4.599 0-0.234 0 3.593 0 72.219 0 105.993 44.328 105.993 113.466 0 26.552 0 102.903 0 246.191l244.979-250.332c38.49-37.942 91.908-37.942 130.398 0 18.773 18.504 28.834 40.888 28.834 65.141 0 9.62 0 83.393 0 176.335l244.979-241.475c38.49-37.942 91.908-37.942 130.398 0 18.773 18.504 28.834 40.888 28.834 65.141 0 27.45 0 577.042 0 604.986 0 25.69-9.441 52.772-29.319 72.372-38.454 37.906-91.81 37.906-130.255 0l-244.637-241.134c0 89.25 0 159.25 0 168.762 0 25.69-9.441 52.772-29.319 72.372-38.454 37.906-91.81 37.906-130.255 0l-244.637-249.991c0 154.256 0 243.946 0 272.779 0 70.916-30.558 113.466-105.993 113.466-4.536 0 0.323 0-3.593 0-72.749 0-105.993-40.78-105.993-113.466 0-85.118 0-679.146 0-761.146 0-67.818 29.822-113.466 105.993-113.466z" />
<glyph unicode="&#xe90e;" glyph-name="k_arrow_last" d="M918.007-46.035c-4.599 0 0.225 0-3.593 0-72.219 0-105.993 44.328-105.993 113.466 0 26.552 0 102.903 0 246.191l-244.979-250.332c-38.49-37.942-91.908-37.942-130.398 0-18.773 18.504-28.834 40.888-28.834 65.141 0 9.62 0 83.393 0 176.335l-244.979-241.475c-38.49-37.942-91.908-37.942-130.398 0-18.773 18.504-28.834 40.888-28.834 65.141 0 27.45 0 577.042 0 604.986 0 25.69 9.432 52.772 29.319 72.372 38.445 37.906 91.81 37.906 130.255 0l244.637-241.134c0 89.25 0 159.25 0 168.762 0 25.69 9.432 52.772 29.319 72.372 38.445 37.906 91.801 37.906 130.255 0l244.637-249.991c0 154.256 0 243.946 0 272.779 0 70.916 30.549 113.466 105.993 113.466 4.536 0-0.323 0 3.593 0 72.749 0 105.993-40.78 105.993-113.466 0-85.118 0-679.146 0-761.146 0-67.818-29.822-113.466-105.993-113.466z" />
<glyph unicode="&#xe90f;" glyph-name="k_arrow_left" d="M916.207 332.979c-43.23 0-266.496 0-438.34 0 0-92.049 0-166.118 0-175.531 0-23.040-9.557-44.288-27.392-61.867-36.565-36.028-95.846-36.028-132.412 0l-290.611 286.353c-20.89 20.582-29.79 48.461-26.82 75.298 1.741 21.026 10.709 41.574 27.034 57.66l290.074 285.824c36.523 35.985 95.744 35.985 132.275 0 18.893-18.62 27.853-44.339 27.853-68.736 0-9.335 0-79.949 0-168.687 168.892 0 386.236 0 438.34 0 69.060 0 107.793-40.098 107.793-109.184 0-3.721 0-7.637 0-11.947 0-71.646-40.422-109.184-107.793-109.184z" />
<glyph unicode="&#xe910;" glyph-name="k_arrow_next" d="M189.843 55.935c0-31.077 12.886-59.737 36.933-83.45 49.302-48.588 129.231-48.588 178.533 0l391.835 386.232c28.154 27.752 40.166 65.363 36.151 101.56-2.336 28.361-14.44 56.078-36.438 77.766l-391.11 385.519c-49.256 48.542-129.105 48.542-178.349 0-25.473-25.117-37.554-59.806-37.554-92.712 0-35.794 0-739.765 0-774.915z" />
<glyph unicode="&#xe911;" glyph-name="k_arrow_prev" d="M834.157 56.245c0-31.065-12.886-59.714-36.933-83.416-49.302-48.577-129.231-48.577-178.533 0l-391.835 386.094c-28.166 27.752-40.166 65.34-36.162 101.526 2.347 28.35 14.451 56.055 36.45 77.743l391.11 385.369c49.244 48.531 129.093 48.531 178.349 0 25.473-25.094 37.554-59.772 37.554-92.666 0-35.782 0-739.501 0-774.65z" />
<glyph unicode="&#xe912;" glyph-name="k_arrow_right" d="M996.548 381.781l-290.611-286.455c-36.565-36.036-95.846-36.036-132.412 0-17.835 17.579-27.392 38.844-27.392 61.892 0 9.412 0 83.507 0 175.582-171.844 0-395.11 0-438.349 0-67.371 0-107.793 37.564-107.793 109.235 0 4.301 0 8.226 0 11.938 0 69.12 38.741 109.227 107.793 109.227 52.105 0 269.457 0 438.349 0 0 88.772 0 159.411 0 168.747 0 24.405 8.96 50.133 27.853 68.753 36.523 36.011 95.744 36.011 132.275 0l290.065-285.918c16.324-16.085 25.301-36.642 27.034-57.677 2.978-26.854-5.931-54.741-26.812-75.324z" />
<glyph unicode="&#xe913;" glyph-name="k_arrow_up" horiz-adv-x="759" d="M445.798 932.548l286.353-290.611c36.028-36.565 36.028-95.846 0-132.412-17.579-17.835-38.827-27.392-61.867-27.392-9.412 0-83.482 0-175.531 0 0-171.844 0-395.11 0-438.34 0-67.371-37.538-107.802-109.184-107.802-4.301 0-8.226 0-11.947 0-69.086 0-109.184 38.741-109.184 107.802 0 52.105 0 269.449 0 438.34-88.738 0-159.351 0-168.687 0-24.397 0-50.116 8.969-68.736 27.853-35.985 36.531-35.985 95.753 0 132.275l285.824 290.074c16.085 16.324 36.634 25.293 57.651 27.034 26.846 2.97 54.724-5.931 75.307-26.82z" />
<glyph unicode="&#xe914;" glyph-name="k_automobile_ambulance" d="M1024 755.2v-608.41c0-47.275-17.963-74.257-59.733-74.257h-24.67c0 69.623-37.504 119.467-110.933 119.467-69.623 0-110.933-48.572-110.933-119.467h-409.6c0 75.972-51.473 119.467-110.933 119.467-60.732 0-110.933-44.766-110.933-119.467h-26.53c-53.734 10.999-59.742 30.345-59.733 85.333v179.2l72.030 52.949c0 0 107.947 262.801 115.703 296.917s25.148 68.267 70.118 68.267c7.663 0 34.961 0 74.948 0 0 17.033 0 55.228 0 72.533 0 35.345 28.655 64 64 64s64-28.655 64-64c0-26.044 0-57.668 0-72.533 227.601 0 563.2 0 563.2 0zM749.713 568.806l-61.244 60.919c-5.154 5.18-14.908 11.179-18.611-1.92-3.405 13.15-13.619 6.886-18.56 1.92l-61.244-60.919c-6.784-6.955-6.784-18.244 0-25.207l46.78-46.78v91.17h66.065v-91.179l46.814 46.788c6.784 6.963 6.784 18.253 0 25.207zM777.899 381.005l60.937 61.235c4.966 4.941 11.23 15.155-1.929 18.551 13.107 3.712 7.108 13.457 1.929 18.611l-60.937 61.227c-6.963 6.784-18.244 6.784-25.216 0l-46.805-46.797h91.213v-66.057h-91.196l46.788-46.771c6.972-6.775 18.253-6.775 25.216 0zM590.012 352.794l61.252-60.911c5.154-5.188 14.899-11.187 18.611 1.92 3.396-13.158 13.619-6.895 18.56-1.92l61.244 60.911c6.784 6.963 6.784 18.244 0 25.207l-46.78 46.78v-91.17h-66.065v91.187l-46.822-46.797c-6.775-6.963-6.775-18.244 0-25.207zM500.898 442.197l60.928-61.227c6.963-6.784 18.253-6.784 25.216 0l46.805 46.805h-91.204v66.057h91.196l-46.797 46.763c-6.963 6.784-18.253 6.784-25.216 0l-60.928-61.235c-4.966-4.941-11.23-15.155 1.929-18.551-13.107-3.703-7.108-13.457-1.929-18.611zM238.933 601.6l-85.333-196.267h204.8v196.267h-119.467zM196.267 157.867c42.411 0 76.8-34.381 76.8-76.8 0-42.411-34.389-76.8-76.8-76.8-42.419 0-76.8 34.389-76.8 76.8 0 42.419 34.381 76.8 76.8 76.8zM827.733 157.867c42.411 0 76.8-34.381 76.8-76.8 0-42.411-34.389-76.8-76.8-76.8-42.419 0-76.8 34.389-76.8 76.8 0 42.419 34.381 76.8 76.8 76.8z" />
<glyph unicode="&#xe915;" glyph-name="k_automobile_car" d="M965.922 231.799c-6.861 70.989-66.842 126.481-139.836 126.481-74.803 0-135.953-58.291-140.245-131.814l-278.255-0.572c-4.011 73.788-65.28 132.386-140.288 132.386-74.667 0-135.714-58.069-140.211-131.388-79.428 10.982-127.087 62.114-127.087 123.742l0.418 50.773c-0.418 66.859 43.904 96.026 129.63 115.439l84.702 18.014c32.606 36.233 79.309 70.298 135.117 95.701 0 22.793 0 55.151 0 69.171 0 32.99 26.743 59.733 59.733 59.733s59.733-26.743 59.733-59.733c0-11.964 0-23.083 0-32.427 25.728 4.395 52.352 6.827 79.625 6.827 120.329 0 208.964-42.052 277.239-144.691l96.649-1.732c66.159-5.325 101.154-35.908 101.154-91.204v-135.279c0-37.137-27.136-60.049-58.078-69.427zM508.006 618.752c-126.268-7.987-230.383-64.128-238.259-95.949-1.801-7.253 125.858-41.591 235.221-33.135 8.721 0.674 17.323 1.323 25.796 1.963l10.812 128.265c-10.675-0.026-21.854-0.41-33.57-1.143zM580.241 618.308l-10.078-123.767c96.555 7.057 166.613 11.81 164.489 17.382-23.885 62.72-69.956 98.62-154.411 106.385zM265.975 315.23c49.476 0 89.583-39.996 89.583-89.327s-40.107-89.327-89.583-89.327c-49.476 0-89.583 39.996-89.583 89.327s40.107 89.327 89.583 89.327zM824.491 315.23c49.476 0 89.583-39.996 89.583-89.327 0-31.915-17.075-61.397-44.791-77.363-27.716-15.957-61.867-15.957-89.583 0-27.716 15.966-44.791 45.449-44.791 77.363 0 49.331 40.107 89.327 89.583 89.327z" />
<glyph unicode="&#xe916;" glyph-name="k_automobile_command" d="M1003.588 64.145h-61.474c0 78.959-64.188 142.976-143.369 142.976s-141.679-63.65-141.679-142.609l-267.955-0.367c0 78.959-64.196 142.976-143.377 142.976s-143.369-64.017-143.369-142.976h-81.954c-11.298 0-20.454 9.088-20.454 20.446v132.736c0 45.082 31.659 86.118 76.843 86.118l78.882 7.364c55.467 0 98.475 163.302 151.518 163.302 0 0 13.602 0 34.133 0 0 9.941 0 23.074 0 36.395 0 27.025 21.009 48.939 46.933 48.939 25.916 0 46.933-21.914 46.933-48.939 0-9.489 0-24.636 0-36.395 41.301 0 80.555 0 96.486 0 8.96 0 14.447-6.084 14.447-17.067s0-128 0-128c0-11.025 5.803-17.067 17.067-17.067h187.733l76.8 153.6 110.933 68.267 39.62-221.867h45.713l0.043-227.388c0-11.298-9.173-20.446-20.454-20.446zM503.475 413.116c0 11.025-9.199 20.241-20.54 20.241h-144.956c-11.571 0-27.546-5.99-36.19-13.338l-52.608-95.855c-8.713-7.458-6.417-13.355 4.992-13.355h228.651c11.435 0 20.651 9.062 20.651 20.241v82.065zM580.301 472.073c-5.82 2.671-10.249 7.663-12.228 13.747-1.98 6.093-1.314 12.732 1.818 18.313l232.363 418.253c3.089 5.632 8.414 9.711 14.66 11.238 6.246 1.519 12.843 0.35 18.193-3.226l-0.009 0.017c112.188-76.826 147.456-226.441 81.391-345.284s-211.738-167.834-336.188-113.058zM631.91 706.099c-1.374-2.441-3.763-4.156-6.511-4.676-2.756-0.521-5.606 0.196-7.774 1.963v0.026l-71.262 58.163c-5.948 5.171-14.046 7.125-21.692 5.214-23.313-6.204-47.258 7.578-53.615 30.857-6.349 23.279 7.279 47.317 30.515 53.811s47.351-6.997 53.99-30.191c2.5-7.228 8.346-12.783 15.676-14.933l87.441-29.696c2.611-0.998 4.651-3.089 5.581-5.726s0.649-5.547-0.759-7.962l-31.59-56.849zM245.734 166.263c56.559 0 102.409-45.722 102.409-102.118 0-56.405-45.85-102.118-102.409-102.118s-102.409 45.713-102.409 102.118c0 56.397 45.85 102.118 102.409 102.118zM798.746 166.263c56.559 0 102.409-45.722 102.409-102.118 0-56.405-45.85-102.118-102.409-102.118s-102.409 45.713-102.409 102.118c0 56.397 45.85 102.118 102.409 102.118z" />
<glyph unicode="&#xe917;" glyph-name="k_automobile_fireEngine" d="M998.4 46.933c0 50.91-63.625 85.333-102.4 85.333-38.767 0-102.4-33.587-102.4-85.333h-17.067c0 50.91-63.625 85.333-102.4 85.333-38.767 0-102.4-33.587-102.4-85.333h-273.067c0 50.91-63.625 85.333-102.4 85.333-38.767 0-102.4-33.587-102.4-85.333h-93.867v401.067c0 0 55.049 106.351 84.591 165.316 13.158 26.266 25.549 39.484 51.942 39.484 6.554 0 38.613 0 76.8 0 0 9.796 0 25.754 0 35.388 0 22.869 17.195 41.412 38.4 41.412s38.4-18.543 38.4-41.412c0-13.943 0-27.153 0-35.388 42.334 0 76.8 0 76.8 0v-358.4h51.2v358.4h332.8l-631.467 204.8v102.4l904.533-290.133v-622.933h-25.6zM307.2 601.6h-162.133l-93.867-187.733h256v187.733zM520.533 541.867l-34.133-307.2h51.2l34.133 307.2h-51.2zM622.933 541.867l-34.133-307.2h51.2l34.133 307.2h-51.2zM908.134 467.021c-4.122 13.338-10.65 25.847-19.268 36.983-8.823 11.307-20.053 20.651-32.913 27.383-14.515 7.296-30.686 10.906-47.019 10.505-13.483 0.085-26.871-2.236-39.492-6.852-11.819-4.352-22.673-10.863-31.974-19.174-9.31-8.277-16.683-18.389-21.623-29.67-5.188-12.305-7.748-25.506-7.526-38.801-0.094-12.015 2.142-23.945 6.588-35.157 4.207-10.581 10.607-20.207 18.807-28.305 8.311-8.090 18.227-14.455 29.15-18.714 11.844-4.403 24.457-6.571 37.137-6.391 21.154-0.503 41.856 5.931 58.778 18.261-2.577-7.441-5.888-14.626-9.873-21.453-6.886-11.759-15.428-22.519-25.395-31.957-10.308-9.941-21.649-18.816-33.852-26.479-13.158-8.243-26.82-15.71-40.9-22.374l-5.641-2.731 20.207-37.436h5.18c20.804 9.054 40.644 20.062 59.238 32.87 17.536 11.708 33.357 25.685 47.019 41.54 12.979 15.573 21.982 33.169 28.919 52.045 7.509 20.966 9.984 39.475 9.318 61.662-0.119 13.79-0.614 31.095-4.864 44.245zM807.057 404.48c-12.988-0.879-25.813 3.226-35.738 11.409-8.516 9.062-12.928 21.077-12.22 33.331-0.435 13.611 4.25 26.914 13.167 37.427 10.078 9.591 24.055 14.285 38.076 12.783 8.397 0.137 16.674-1.911 23.979-5.931 6.921-4.241 12.843-9.839 17.399-16.435 4.599-6.682 7.945-14.097 9.873-21.914 1.937-8.235 2.884-16.657 2.825-25.105-7.1-7.194-15.36-13.21-24.457-17.809-10.121-5.214-21.444-7.885-32.905-7.757zM196.284 89.463c42.377-0.009 76.732-34.372 76.732-76.766s-34.355-76.757-76.732-76.757c-42.377 0-76.732 34.364-76.732 76.757s34.355 76.766 76.732 76.766zM674.15 89.463c42.377-0.009 76.732-34.372 76.732-76.766s-34.355-76.757-76.732-76.757c-42.377 0-76.732 34.364-76.732 76.757s34.355 76.766 76.732 76.766zM896.017 89.463c42.377-0.009 76.732-34.372 76.732-76.766s-34.355-76.757-76.732-76.757c-42.377 0-76.732 34.364-76.732 76.757s34.355 76.766 76.732 76.766z" />
<glyph unicode="&#xe918;" glyph-name="k_automobile_moto" horiz-adv-x="785" d="M785.067 284.476c0 0-0.051-0.060-0.051-0.094v-64.529c0.026-47.804-38.716-80.956-83.413-81.041h-133.538c-0.051-0.623 0.145-7.825 0-8.431-1.323-8.909-9.472-20.599-16.691-25.284-22.81-14.643-46.182-29.329-75.11-50.569v117.999c12.305 2.014 19.61 17.886 19.456 28.8v64.708c0 49.118-27.742 78.558-69.538 91.913l-67.055 1.374c-41.822-13.414-69.581-42.991-69.581-92.331v-64.998c-0.154-10.965 7.159-26.906 19.473-28.937v-118.528c-28.954 21.333-52.335 36.087-75.17 50.799-7.219 4.702-15.369 16.452-16.7 25.404-0.145 0.606 0.051 7.842 0 8.465h-133.632c-44.723 0.085-83.49 33.391-83.465 81.408v64.819c0 0.034-0.051 0.094-0.051 0.094 0.265 80.017 58.982 141.534 133.632 141.534h33.399l8.354 110.063-33.408 8.465-8.346-16.93h-16.708l-8.354 16.93h-58.462c-8.32 0-8.346 8.977-8.346 16.93 0 8.687-0.367 16.939 8.346 16.939h58.462l8.354 16.93h16.708l8.346-16.93 41.762-8.474c8.030 80.239 23.603 83.652 31.531 166.972 0.87 9.114 5.436 17.357 12.484 22.528 102.682 74.948 227.106 71.433 329.711-3.183 7.040-5.137 11.605-13.346 12.476-22.417 7.927-82.953 23.484-86.349 31.514-166.221l21.478 4.343v224.87l-42.667 8.533c0 0 0 34.381 0 76.8s17.314 76.8 59.733 76.8c42.411 0 59.733-34.381 59.733-76.8 0-28.049 0-76.8 0-76.8l-42.667-8.533v-203.93h11.153l8.346-16.853h58.419c8.713 0 8.354-8.218 8.354-16.853 0-7.919-0.026-16.862-8.354-16.862h-58.419l-8.346-16.853h-11.153v-101.427c71.91-2.97 127.735-62.95 128-140.612zM176.495 368.418h-40.943c-31.957-0.051-60.629-21.052-72.337-52.966l121.856-1.86c-2.927 18.517-5.777 36.403-8.576 54.827zM198.016 231.151c-1.058 6.741-2.057 13.431-3.132 20.096l-136.96 2.133v-32.828c-0.026-6.571 2.398-12.885 6.716-17.553 4.318-4.659 10.189-7.279 16.307-7.296h122.607c-1.92 11.52-3.703 23.714-5.538 35.447zM392.533 579.447c-32.239 0-58.189-26.624-58.189-59.247s26.129-59.068 58.368-59.068l-0.179-0.222c32.222 0.034 58.411 24.713 58.411 57.19 0 32.486-26.172 61.346-58.411 61.346zM587.179 230.357c-1.826-11.682-3.61-23.825-5.53-35.285h122.522c6.118 0.009 11.981 2.628 16.299 7.262 4.318 4.642 6.733 10.931 6.716 17.468v32.683l-136.875-2.125c-1.075-6.63-2.074-13.286-3.132-20.002zM600.115 312.431l121.779 1.843c-11.699 31.778-40.354 52.676-72.286 52.727h-40.917c-2.799-18.338-5.649-36.139-8.576-54.571zM609.801 534.946l8.346-109.577h4.787v112.887l-13.133-3.311zM392.713 308.523c57.907 0 58.283-20.932 58.283-56.448l-0.077-265.028c0-29.466 0.162-50.961-58.283-50.961s-58.283 22.468-58.283 50.961l0.085 265.028c0 35.516 0.367 56.448 58.274 56.448z" />
<glyph unicode="&#xe919;" glyph-name="k_automobile_policeStation" d="M750.933 802.133h238.933v-59.733h-238.933v59.733zM964.267 716.8l59.733-512c0.009-54.989-6.007-74.334-59.733-85.333h-26.53c0 74.701-50.202 119.467-110.933 119.467-59.46 0-110.933-43.494-110.933-119.467h-409.6c0 70.886-41.31 119.467-110.933 119.467-73.429 0-110.933-49.843-110.933-119.467h-24.67c-41.771 0-59.733 26.982-59.733 74.257v523.076h580.267c0 23.637 0 48.751 0 64 0 35.345 28.655 64 64 64s64-28.655 64-64c0-10.462 0-37.717 0-64h256zM742.4 452.267h204.8l-34.133 179.2h-170.667v-179.2zM213.333 631.467h-162.133v-179.2h162.133v179.2zM426.667 631.467h-162.133v-179.2h162.133v179.2zM477.867 204.8h213.333v426.667h-213.333v-426.667zM0 802.133h537.6v-59.733h-537.6v59.733zM196.267 204.8c42.411 0 76.8-34.381 76.8-76.8 0-42.411-34.389-76.8-76.8-76.8-42.419 0-76.8 34.389-76.8 76.8 0 42.419 34.381 76.8 76.8 76.8zM827.733 204.8c42.411 0 76.8-34.381 76.8-76.8 0-42.411-34.389-76.8-76.8-76.8-42.419 0-76.8 34.389-76.8 76.8 0 42.419 34.381 76.8 76.8 76.8z" />
<glyph unicode="&#xe91a;" glyph-name="k_automobile_SWAT" d="M699.733 379.733l-93.867-136.533-205.935-0.043-92.732 93.909h-196.267l-110.933-187.733 42.667 384h25.6l8.533-76.8h17.067v116.105l170.667 72.789 85.333 135.373 34.133-0.998c0 12.766 0 30.558 0 43.665 0 32.99 26.743 59.733 59.733 59.733s59.733-26.743 59.733-59.733c0-19.268 0-36.233 0-47.155l196.727-5.743 323.806-40.969v-324.267l-324.267-25.6zM315.733 627.2h170.667v102.4h-110.933l-59.733-102.4zM665.6 721.067l-136.533 8.533v-102.4h136.533v93.867zM972.8 695.467l-264.533 25.6v-34.133l264.533-17.067v25.6zM972.8 644.267l-264.533 17.067v-34.133l264.533-8.533v25.6zM71.962 222.959l23.373 40.482 19.405 6.050 4.89 18.244 40.482 23.373 19.831-4.463 13.355 13.355h46.746l14.942-13.781 18.244 4.89 40.482-23.373 4.89-18.244 19.405-6.050 23.373-40.482-4.89-18.244 10.445-11.605v-46.746l-13.355-13.355 7.799-23.168-23.373-40.482-18.244-4.89-6.050-19.405-40.482-23.373-18.244 4.89-14.942-13.781h-46.746l-13.355 13.355-19.831-4.463-40.482 23.373-6.050 19.405-18.244 4.89-23.373 40.482 1.126 23.168-13.355 13.355v46.746l13.355 13.363-1.126 16.486zM645.052 246.306l25.975 44.988 21.555 6.716 5.436 20.275 44.979 25.967 22.033-4.958 14.839 14.839h51.942l16.597-15.309 20.275 5.427 44.979-25.967 5.436-20.275 21.555-6.716 25.975-44.988-5.436-20.267 11.605-12.894v-51.942l-14.839-14.839 8.67-25.737-25.975-44.988-20.267-5.427-6.724-21.564-44.979-25.967-20.275 5.427-16.597-15.309h-51.942l-14.839 14.839-22.033-4.958-44.979 25.967-6.716 21.564-20.275 5.427-25.975 44.988 1.254 25.737-14.839 14.839v51.942l14.839 14.848-1.254 18.313z" />
<glyph unicode="&#xe91b;" glyph-name="k_CT_highPoint" d="M0-64v25.6l25.6 25.6h972.8l25.6-25.6v-25.6h-1024zM605.867 490.667c0 23.569 19.098 42.667 42.667 42.667h187.733c23.561 0 42.667-19.098 42.667-42.667v-477.867h-273.067v477.867zM682.667 200.533h119.467c14.14 0 25.6 11.46 25.6 25.6s-11.46 25.6-25.6 25.6h-119.467c-14.14 0-25.6-11.46-25.6-25.6s11.46-25.6 25.6-25.6zM682.667 320h119.467c14.14 0 25.6 11.46 25.6 25.6s-11.46 25.6-25.6 25.6h-119.467c-14.14 0-25.6-11.46-25.6-25.6s11.46-25.6 25.6-25.6zM153.6 652.8c0 23.561 19.098 42.667 42.667 42.667h298.667c23.561 0 42.667-19.106 42.667-42.667v-640h-384v640zM238.933 81.067h213.333c14.14 0 25.6 11.46 25.6 25.6s-11.46 25.6-25.6 25.6h-213.333c-14.14 0-25.6-11.46-25.6-25.6s11.46-25.6 25.6-25.6zM238.933 200.533h213.333c14.14 0 25.6 11.46 25.6 25.6s-11.46 25.6-25.6 25.6h-213.333c-14.14 0-25.6-11.46-25.6-25.6s11.46-25.6 25.6-25.6zM238.933 320h213.333c14.14 0 25.6 11.46 25.6 25.6s-11.46 25.6-25.6 25.6h-213.333c-14.14 0-25.6-11.46-25.6-25.6s11.46-25.6 25.6-25.6zM238.933 439.467h213.333c14.14 0 25.6 11.46 25.6 25.6s-11.46 25.6-25.6 25.6h-213.333c-14.14 0-25.6-11.46-25.6-25.6s11.46-25.6 25.6-25.6zM238.933 558.933h213.333c14.14 0 25.6 11.46 25.6 25.6s-11.46 25.6-25.6 25.6h-213.333c-14.14 0-25.6-11.46-25.6-25.6s11.46-25.6 25.6-25.6zM264.55 877.602c0 45.508 36.292 82.398 81.050 82.398 44.766 0 81.050-36.89 81.050-82.398 0-64.947-81.084-98.33-81.084-165.069 0 66.782-81.015 100.122-81.015 165.069z" />
<glyph unicode="&#xe91c;" glyph-name="k_CT_intercept" d="M1024.068 951.467h-1024.068v-443.733h102.4l-102.4-563.2h136.533l52.685 271.906h645.564l52.685-271.906h136.533l-102.4 563.2h102.4l0.068 443.733zM657.067 618.667h-128l-119.467 221.867h128l119.467-221.867zM119.467 840.533h136.533l119.467-221.867h-128l-128 221.867zM817.519 336.521h-611.038l32.452 171.213h546.133l32.452-171.213zM819.2 618.667l-128 221.867h128l102.4-187.733v-34.133h-102.4z" />
<glyph unicode="&#xe91d;" glyph-name="k_CT_onDuty" horiz-adv-x="751" d="M0-64v76.8l25.6 42.667h247.467v273.067h-85.333v375.467c0 0 93.739 42.667 187.733 42.667 93.739 0 187.733-42.667 187.733-42.667v-375.467h-85.333v-273.067h247.467l25.6-42.667v-76.8h-750.933zM375.467 772.267c-51.84 0-93.867 42.027-93.867 93.867s42.027 93.867 93.867 93.867c51.84 0 93.867-42.027 93.867-93.867s-42.027-93.867-93.867-93.867z" />
<glyph unicode="&#xe91e;" glyph-name="k_CT_sniper" d="M512 959.898c-282.718 0-511.898-229.18-511.898-511.898 0-282.709 229.18-511.889 511.898-511.889 282.709 0 511.889 229.18 511.889 511.889 0 282.718-229.18 511.898-511.889 511.898zM512-30.507c-264.277 0-478.515 214.238-478.515 478.507 0 264.277 214.238 478.515 478.515 478.515 264.269 0 478.507-214.238 478.507-478.515 0-264.269-214.238-478.507-478.507-478.507zM890.001 436.233h-224.99v11.767h-141.244v-153.011h11.767v-224.486c194.065 11.93 348.476 170.112 354.466 365.73zM500.224 69.999v224.99h11.776v153.011h-153.011v-11.767h-224.998c6.118-199.552 166.682-360.124 366.234-366.234zM134.494 471.543h224.495v-11.767h153.011v153.011h-11.776v213.222c-195.61-5.999-353.801-160.401-365.73-354.466zM535.535 825.506v-212.719h-11.767v-153.011h141.244v11.767h224.486c-11.691 190.165-163.797 342.272-353.963 353.963z" />
<glyph unicode="&#xe91f;" glyph-name="k_CT_station" d="M479.317-64l-217.873 750.933c0 0 139.546-34.133 277.367-34.133 134.477 0 267.315 34.133 267.315 34.133l217.873-750.933h-544.683zM304.879 814.933c-27.358 0-57.412-25.6-57.412-25.6v136.533c0 0 29.713 25.6 56.772 25.6 20.779 0 53.547-17.067 74.317-17.067 26.991 0 56.644 17.067 56.644 17.067v-136.533c0 0-28.988-17.067-55.373-17.067-20.83 0-53.888 17.067-74.948 17.067zM428.484-64h-147.635l-70.238 375.467-59.418-375.467h-151.194l196.267 699.733v324.267h34.133v-324.267l198.084-699.733z" />
<glyph unicode="&#xe920;" glyph-name="k_equip_ballCamera" d="M947.2 405.333c-5.845-212.309-199.893-375.484-434.372-375.484-233.643 0-423.484 169.438-430.635 380.919-37.282 19.063-65.621 41.779-80.614 68.275-3.575 57.395 0 219.324 0 256.691 161.152 172.535 856.055 175.223 1022.43 0v-256.691c-15.266-25.463-39.74-46.319-76.809-65.178v-8.533zM353.058 174.302h9.762c22.007-37.299 80.538-64.213 149.948-64.213 69.461 0 128 26.846 150.007 64.213h9.771v208.529h-3.234c-15.113 74.513-80.486 128.137-156.484 128.341-77.244 0-141.824-55.117-156.544-128.41h-3.226v-208.461zM944.23 700.919c-146.918 106.121-669.653 114.313-862.72 2.748 0-19.2-1.655-105.293 1.306-134.75 151.936 95.454 704.862 94.148 861.414 0v132.002zM512.768 350.763c44.015 0 79.923-39.509 79.923-88.303 0-48.862-35.772-88.294-79.923-88.294-44.092 0-79.991 39.433-79.991 88.294 0 48.87 35.9 88.303 79.991 88.303v0z" />
<glyph unicode="&#xe921;" glyph-name="k_equip_baseStation" horiz-adv-x="674" d="M588.8-64l85.333 85.333v529.067l-85.333 85.333h-59.733v85.333c0 14.14-11.46 25.6-25.6 25.6s-25.6-11.46-25.6-25.6v-85.333h-34.133v25.6c0 14.14-11.46 25.6-25.6 25.6h-34.133c-14.14 0-25.6-11.46-25.6-25.6v-25.6h-119.467v281.6c0 23.569-19.106 42.667-42.667 42.667-23.569 0-42.667-19.098-42.667-42.667v-281.6h-68.267l-85.333-85.333v-529.067l85.333-85.333h503.467zM341.333 524.8c14.14 0 25.6-11.46 25.6-25.6v-426.667c0-14.14-11.46-25.6-25.6-25.6s-25.6 11.46-25.6 25.6v426.667c0 14.14 11.46 25.6 25.6 25.6zM546.133 524.8c14.14 0 25.6-11.46 25.6-25.6v-426.667c0-14.14-11.46-25.6-25.6-25.6s-25.6 11.46-25.6 25.6v426.667c0 14.14 11.46 25.6 25.6 25.6zM443.733 524.8c14.14 0 25.6-11.46 25.6-25.6v-426.667c0-14.14-11.46-25.6-25.6-25.6s-25.6 11.46-25.6 25.6v426.667c0 14.14 11.46 25.6 25.6 25.6zM238.933 524.8c14.14 0 25.6-11.46 25.6-25.6v-426.667c0-14.14-11.46-25.6-25.6-25.6s-25.6 11.46-25.6 25.6v426.667c0 14.14 11.46 25.6 25.6 25.6zM136.533 524.8c14.14 0 25.6-11.46 25.6-25.6v-426.667c0-14.14-11.46-25.6-25.6-25.6s-25.6 11.46-25.6 25.6v426.667c0 14.14 11.46 25.6 25.6 25.6z" />
<glyph unicode="&#xe922;" glyph-name="k_equip_bayonet" d="M989.867 64h-460.8v-128h-529.067v256h529.067v-25.6h460.8c21.35 0 34.15-16.179 34.15-37.018v-30.191c0-20.847-12.8-35.191-34.15-35.191zM554.667 140.8v-51.2h51.2l51.2 51.2h-102.4zM725.333 140.8l-51.2-51.2h102.4l51.2 51.2h-102.4zM964.267 140.8h-68.267l-51.2-51.2h119.467c0 0 25.6 1.365 25.6 25.6 0 25.225-25.6 25.6-25.6 25.6zM810.667 533.333c-117.82 0-213.333 95.514-213.333 213.333s95.514 213.333 213.333 213.333c117.82 0 213.333-95.514 213.333-213.333s-95.514-213.333-213.333-213.333zM809.728 891.725c-22.229 0-33.348-15.147-33.348-45.389 0-4.326 0.529-11.895 1.596-22.69 1.041-5.419 1.587-9.19 1.587-11.341l19.046-119.945h23.817l19.046 119.945c0 2.15 0.521 5.922 1.587 11.341 1.050 10.795 1.587 18.364 1.587 22.69 0 30.242-11.657 45.389-34.918 45.389zM809.728 666.428c-20.122-2.185-31.232-13.525-33.348-34.039 2.116-18.364 13.227-28.621 33.348-30.797 21.154 2.176 32.785 12.433 34.918 30.797-2.133 20.514-13.764 31.855-34.918 34.039zM435.2 866.133h-435.2v93.867h494.933c21.308 0 34.133-13.133 34.133-34.133v-401.067h-93.867v341.333zM154.743 708.89c52.105 0 82.091-6.622 113.92-12.023 3.507-13.346 5.402-27.554 5.402-42.274 0-78.242-53.419-117.513-119.322-117.513-65.894 0-119.313 39.27-119.313 117.513 0 14.259 2.202 29.295 5.504 42.274 31.59 8.149 57.088 12.023 113.809 12.023zM6.69 776.747c-2.031 7.228 2.031 14.455 8.115 16.862 20.292 9.643 64.939 9.984 83.2 19.618 6.093 2.415 12.177 4.821 18.27 4.821h77.107c6.093 0 14.208-2.406 18.261-4.821 18.27-9.634 62.916-7.569 83.209-19.618 6.084-4.813 10.146-9.634 8.115-16.862-2.031-7.236-4.062-19.277-8.115-28.919-8.115-19.277-22.323-43.375-22.323-43.375v-4.821c-26.385 9.643-71.023 14.464-121.762 14.464-46.669 0-87.253-4.821-113.638-12.049v2.406c0 0-14.208 26.505-22.323 43.375-4.062 9.643-6.084 21.683-8.115 28.919zM157.892 739.49c14.387 0 26.061 11.494 26.061 25.677s-11.674 25.677-26.061 25.677c-14.396 0-26.061-11.494-26.061-25.677s11.665-25.677 26.061-25.677zM51.507 524.459h207.505c4.924 0 1.587 9.634 1.587 9.634l82.773-9.062-3.746-9.165c0 0 32.213-11.247 39.492-21.538 4.446-3.098 8.636-6.682 12.416-10.854l96.478-142.089 122.095 26.564c0 0 2.005-5.538 2.62-10.53 16.631 16.222 20.506 20.036 40.303 28.655 19.797 8.627 30.66 27.187 30.66 27.187 3.831 6.4 8.175 14.319 14.694 10.522 6.519-3.806 4.471-22.246 0.631-28.646l-11.46-21.103c-0.742-1.237-2.039-2.901-3.541-4.676l76.211 10.274c25.156-2.859 23.876-18.33 15.505-41.89-10.3-29.005-103.885-52.19-119.637-51.345s-27.639 6.315-33.724 9.062c1.254-7.236 3.063-15.104 3.063-15.104l-124.433-45.807c-34.475-10.607-63.906 5.35-87.108 30.703l-70.519 90.624-19.106-129.741h-324.267v304.939l52.122 3.021-0.614-9.634zM156.348 485.777c-10.163 0-18.398-8.124-18.398-18.142 0-10.010 8.235-18.133 18.398-18.133 10.155 0 18.398 8.124 18.398 18.133 0 10.018-8.243 18.142-18.398 18.142zM156.681 266.769l21.146 30.251c0 0-5.845 76.314-5.845 89.745 0 27.972-6.989 50.654-15.616 50.654s-15.625-22.682-15.625-50.654c0-13.44-5.837-89.83-5.837-89.83l21.777-30.165z" />
<glyph unicode="&#xe923;" glyph-name="k_equip_cone" d="M748.612 329.643c134.084-67.046 275.277-137.643 275.277-137.643l-511.889-255.949-511.889 255.949c0 0 141.193 70.596 275.277 137.643l185.412 613.291h1.033c4.745 9.737 25.395 17.067 50.167 17.067s45.423-7.33 50.167-17.067h1.033l185.412-613.291zM290.133 209.067c0-51.84 99.337-93.867 221.867-93.867s221.867 42.027 221.867 93.867l-53.606 177.306c-33.502-24.422-94.404-40.772-168.26-40.772s-134.758 16.35-168.26 40.772l-53.606-177.306zM428.279 666.010l-36.907-122.078c25.225-16.7 68.198-27.665 120.627-27.665 52.42 0 95.403 10.965 120.627 27.665l-36.907 122.078c-7.501-17.271-40.602-30.276-83.721-30.276-43.127 0-76.22 13.005-83.721 30.276zM504.354 917.658l-39.407-130.347c11.23-5.641 27.571-9.242 47.053-9.242s35.814 3.601 47.053 9.242l-39.415 130.347c-2.509-0.162-5.018-0.324-7.637-0.324s-5.129 0.162-7.646 0.324z" />
<glyph unicode="&#xe924;" glyph-name="k_equip_faceCamera" d="M947.2-64l-34.133 25.6v972.8l34.133 25.6h76.8v-1024h-76.8zM411.776 166.98c0 46.148 0 121.131 16.794 126.899 0 0 5.598 5.769 16.794 5.769 5.598 0 16.794 5.769 22.391 5.769l27.989 28.843c5.589 11.529 5.589 28.834 0 40.371-11.204 34.611-44.783 80.751-67.174 115.362-11.196 11.529-22.391 23.066-27.989 34.611-5.598 5.76-5.598 11.529 0 17.297 22.391 63.454 11.196 144.205-33.587 213.419l503.407-119.202v-89.873l-458.624-413.875v34.611zM361.071 478.865c17.894-27.383 44.732-63.889 53.683-91.273 4.471-9.131 4.471-22.818 0-31.949l-22.366-22.818c-4.48 0-13.423-4.565-17.903-4.565-8.943 0-13.414-4.565-13.414-4.565-13.423-4.565-13.423-63.889-13.423-100.403v-27.383c0-45.636-31.309-73.028-80.512-73.028-13.414 0-26.837 4.565-35.789 4.565-4.471 4.565-13.414 4.565-17.886 4.565-26.846 0-35.789-9.131-35.789-36.506v-22.827c0-22.818-13.423-36.506-31.309-45.636-13.423-4.565-61.372-22.775-146.364-22.775v853.333c40.26 0 83.738-4.497 119.526-13.619 76.041-22.827 152.081-82.15 192.341-155.17 35.78-54.767 44.732-118.665 26.837-168.866-4.471-4.565-4.471-9.131 0-13.696 4.471-9.131 13.423-18.253 22.366-27.383z" />
<glyph unicode="&#xe925;" glyph-name="k_equip_ganCamera" horiz-adv-x="1025" d="M1023.872 534.308c-3.014-15.957-11.782-30.155-24.546-39.752l-68.328-51.781c-6.48-4.926-15.095-5.712-22.318-2.032l-116.062 58.637-181.572-142.649c-3.757-2.954-8.367-4.559-13.105-4.542-3.21 0.009-6.378 0.726-9.272 2.126l-129.927 63.205c-15.428-27.141-43.722-43.816-74.304-43.782-47.103 0-85.42 38.71-85.42 86.291-0.137 9.306 1.673 18.535 5.31 27.065l-267.949 130.354c-22.019 10.664-36.123 33.34-36.302 58.338v9.366c0.026 11.987 3.33 23.709 9.537 33.861l102.974 169.107c27.415 45.002 75.030 71.888 127.34 71.888 23.154 0.051 46.001-5.413 66.74-15.974l682.84-344.985c17.135-8.674 29.498-24.888 33.605-44.046 1.195-2.749 1.827-5.72 1.836-8.726v-5.114c0-2.322-0.367-4.645-1.076-6.856zM21.43 503.128l42.706 0.060c35.389 0 64.042-29.097 64.042-64.793v-81.331l121.706 59.764c8.154 0.009 15.624-4.738 19.253-12.252 21.285-45.472 66.142-74.304 115.251-74.056 17.067-0.060 33.989 3.381 49.749 10.117 7.897 3.381 16.999 1.648 23.189-4.423 6.156-5.985 8.136-15.231 4.995-23.334-16.153-41.741-59.739-69.634-99.285-94.316l-234.856-145.142v-72.75c0-35.748-28.73-64.776-64.042-64.776h-42.706c-11.697-0.102-21.25 9.554-21.353 21.566v524.030c0.043 5.78 2.305 11.313 6.309 15.368 4.004 4.064 9.426 6.309 15.044 6.267zM671.528 348.467l128.117 86.317c6.403 4.286 14.531 4.798 21.396 1.332l85.395-43.15c5.029-2.502 8.888-6.967 10.681-12.414 1.801-5.439 1.4-11.398-1.11-16.529l-64.17-129.466c-2.664-5.319-7.317-9.298-12.901-10.997-2.006-0.606-4.090-0.914-6.19-0.914-3.705 0-7.36 0.982-10.587 2.852l-149.453 86.3c-6.42 3.62-10.51 10.45-10.766 17.972-0.248 7.513 3.364 14.625 9.52 18.698h0.068z" />
<glyph unicode="&#xe926;" glyph-name="k_equip_highPointCamera" d="M972.8 499.2l-34.133 25.6v409.6l34.133 25.6h51.2v-460.8h-51.2zM426.667 755.2c0-10.069 0-42.667 0-42.667h-145.067c0 0 0 114.85 0 128 0 56.175 17.775 85.333 102.4 85.333 87.467 0 520.533 0 520.533 0v-290.133l-452.267 145.067c0 0-25.6 7.228-25.6-25.6zM665.6 344.337c0-17.143 0-67.004 0-67.004h-665.6c0 0 0 49.109 0 67.004 0 190.652 108.083 310.34 256 351.13h153.6c145.98-42.47 256-162.133 256-351.13zM145.067-29.867c-82.782 47.846-102.4 106.47-102.4 221.867v68.267h102.4v-290.133zM486.4-4.267c-27.068-31.241-60.809-46.985-94.524-59.733h-118.153c-34.534 12.382-67.106 28.279-94.524 59.733v264.533h307.2v-264.533zM230.4 192c-9.429 0-17.067-7.637-17.067-17.067 0-9.421 7.637-17.067 17.067-17.067 9.421 0 17.067 7.646 17.067 17.067 0 9.429-7.646 17.067-17.067 17.067zM230.4 123.733c-9.429 0-17.067-7.637-17.067-17.067 0-9.421 7.637-17.067 17.067-17.067 9.421 0 17.067 7.646 17.067 17.067 0 9.429-7.646 17.067-17.067 17.067zM230.4 55.467c-9.429 0-17.067-7.637-17.067-17.067 0-9.421 7.637-17.067 17.067-17.067 9.421 0 17.067 7.646 17.067 17.067 0 9.429-7.646 17.067-17.067 17.067zM332.8 166.4c-32.99 0-59.733-26.743-59.733-59.733s26.743-59.733 59.733-59.733c32.99 0 59.733 26.743 59.733 59.733s-26.743 59.733-59.733 59.733zM435.2 192c-9.429 0-17.067-7.637-17.067-17.067 0-9.421 7.637-17.067 17.067-17.067 9.421 0 17.067 7.646 17.067 17.067 0 9.429-7.646 17.067-17.067 17.067zM435.2 123.733c-9.429 0-17.067-7.637-17.067-17.067 0-9.421 7.637-17.067 17.067-17.067 9.421 0 17.067 7.646 17.067 17.067 0 9.429-7.646 17.067-17.067 17.067zM435.2 55.467c-9.429 0-17.067-7.637-17.067-17.067 0-9.421 7.637-17.067 17.067-17.067 9.421 0 17.067 7.646 17.067 17.067 0 9.429-7.646 17.067-17.067 17.067zM622.933 192c0.137-115.396-18.901-174.012-102.4-221.867 0 64.623 0 290.133 0 290.133h102.4v-68.267z" />
<glyph unicode="&#xe927;" glyph-name="k_equip_knifeRest" horiz-adv-x="1023" d="M1022.635-64h-162.133l-304.29 426.010-180.309-426.010c-91.605 0-155.401 0-155.401 0l2.594 6.229-2.927-0.896-123.119 59.008-96.973 133.325 167.040 12.885 117.623-56.371 44.937 107.836-121.694 58.325-96.973 133.325 167.040 12.885 114.065-54.665 47.898 114.944-121.097 58.044-96.973 133.325 167.040 12.885 113.476-54.383 44.928 107.836-117.547 56.337-96.964 133.325 167.040 12.885 109.918-52.676 37.333 89.591h162.133l-192.768-455.458 406.101-568.542z" />
<glyph unicode="&#xe928;" glyph-name="k_equip_UAV" d="M204.8 750.933c-9.301 0-13.952-8.781-17.067-17.067h34.133c-3.106 8.337-7.748 17.067-17.067 17.067zM648.533 110.933c24.951 0.077 51.123 17.664 51.2 42.667-0.051 16.683-12.194 34.816-25.6 42.667 3.9 10.726 8.508 22.067 8.533 34.133v153.6c42.786 21.717 76.8 59.691 76.8 110.933 0 7.236 1.126 27.213 0 34.133h8.533c0.478-0.512-0.495-8.038 0-8.533 12.723-12.783 33.178-17.050 51.2-17.067 37.547 0.017 68.258 22.11 68.267 59.733v102.4c0 6.135-6.195 11.81-8.533 17.067h128c9.728 0 17.067 6.963 17.067 17.067 0 4.599 0.102 14.225 0.094 18.825 0 9.6-7.578 15.309-17.161 15.309h-136.533c-1.655 12.211-4.753 25.694-13.551 34.509-10.607 10.624-22.647 16.7-37.649 16.691-28.638-0.026-47.471-23.518-51.2-51.2h-128c-9.591 0-17.067-7.475-17.067-17.067-0.043-4.582 0-12.484 0-17.067 0-9.233 7.791-17.067 17.067-17.067h119.467c-2.338-5.257-8.533-10.931-8.533-17.067v-42.667h-85.333c0 21.572-15.138 34.133-34.133 34.133h-238.933c-18.995 0-34.133-12.561-34.133-34.133h-85.333v42.667c0 6.135-6.195 11.81-8.533 17.067h119.467c9.276 0 17.067 7.834 17.067 17.067 0 4.582 0.043 12.484 0 17.067 0 9.591-7.475 17.067-17.067 17.067h-128c-3.738 27.682-22.562 51.174-51.2 51.2-15.002 0.009-27.042-6.067-37.649-16.691-8.798-8.815-11.895-22.298-13.551-34.509h-136.533c-9.591 0-17.161-5.709-17.161-15.309-0.009-4.599 0.094-14.225 0.094-18.825 0-10.103 7.339-17.067 17.067-17.067h128c-2.338-5.257-8.533-10.931-8.533-17.067v-102.4c0.009-37.623 30.711-59.716 68.267-59.733 18.014 0.017 38.477 4.284 51.2 17.067 0.495 0.495-0.478 8.021 0 8.533h8.533c-1.126-6.921 0-26.897 0-34.133 0-51.243 34.014-89.216 76.8-110.933v-153.6c0.026-12.066 4.634-23.407 8.533-34.133-13.406-7.851-25.549-25.984-25.6-42.667 0.077-25.003 26.249-42.59 51.2-42.667h273.067zM819.2 750.933c9.301 0 13.952-8.781 17.067-17.067h-34.133c3.098 8.337 7.74 17.067 17.067 17.067zM512 341.333c23.561 0 42.667-19.106 42.667-42.667s-19.106-42.667-42.667-42.667c-23.569 0-42.667 19.106-42.667 42.667s19.098 42.667 42.667 42.667z" />
<glyph unicode="&#xe929;" glyph-name="k_place_bank" horiz-adv-x="794" d="M393.139 921.873c1.51 0 3.388 0.742 5.649 2.244 4.514 2.995 10.539 8.243 18.065 15.735 9.028 8.243 18.065 14.242 27.093 17.988s21.077 2.62 36.122-3.371c7.526-2.253 13.551-5.436 18.074-9.557 4.514-4.122 8.841-8.055 12.979-11.802s8.653-6.929 13.551-9.557c4.89-2.62 11.093-3.934 18.62-3.934s13.926 1.126 19.2 3.371c5.265 2.253 10.342 4.309 15.241 6.187 4.89 1.869 9.779 3.183 14.677 3.934 4.89 0.751 10.718 0 17.502-2.244 7.526-3.004 12.595-7.313 15.241-12.928 2.628-5.632 3.379-11.435 2.253-17.434-1.135-5.99-3.763-11.989-7.902-17.98-4.139-5.999-9.225-10.871-15.241-14.618-14.302-8.994-25.216-18.176-32.742-27.546-7.526-9.361-15.053-19.294-22.579-29.781-3.763-5.248-7.902-11.247-12.416-17.988-4.523-6.75-8.661-13.491-12.425-20.233-4.514-8.243-9.404-16.119-14.669-23.612h-233.702c-5.265 8.994-10.53 17.613-15.804 25.856-4.514 7.492-9.412 14.985-14.677 22.485-5.265 7.492-9.788 14.234-13.551 20.233-7.526 11.238-15.991 21.171-25.404 29.79-9.404 8.619-18.62 16.299-27.657 23.049-9.779 6.741-16.555 15.923-20.326 27.537-3.755 11.614-0.367 21.547 10.172 29.79 5.265 3.746 11.281 5.248 18.057 4.497s13.926-2.244 21.453-4.497c7.526-2.244 14.865-4.497 22.016-6.741 7.151-2.253 13.739-2.628 19.755-1.126 10.539 2.253 18.441 6.187 23.706 11.802 5.274 5.623 14.31 12.553 27.102 20.796 9.779 5.999 20.693 8.055 32.734 6.187 12.041-1.877 21.077-5.811 27.102-11.802 3.012-3.755 6.204-6.938 9.591-9.557s6.963-5.060 10.726-7.305c3.763-2.995 7.902-5.623 12.416-7.868v0zM520.713 697.037c9.037-11.989 20.326-25.105 33.877-39.339 11.29-12.749 25.207-27.17 41.771-43.281 16.555-16.119 35.746-33.169 57.574-51.149 18.065-15.744 36.693-34.295 55.885-55.646 19.191-21.367 35.934-46.285 50.244-74.761 14.293-28.476 24.269-61.269 29.909-98.364 5.649-37.094 4.71-78.498-2.816-124.22-6.775-37.47-20.139-72.875-40.081-106.231-19.942-33.348-46.473-62.387-79.59-87.117-33.118-24.738-72.448-44.407-117.982-59.025-45.534-14.609-97.28-21.914-155.23-21.914-59.46 0-112.145 8.422-158.054 25.293-45.918 16.862-84.864 38.775-116.855 65.766-31.983 26.974-57.387 57.139-76.203 90.487s-31.241 66.517-37.257 99.49c-6.775 36.719-7.714 71.945-2.816 105.668 4.881 33.724 13.73 65.391 26.522 94.993 12.8 29.602 28.791 56.764 47.983 81.502 19.191 24.73 40.081 46.839 62.66 66.321 19.567 17.237 37.257 33.536 53.060 48.905 15.804 15.36 28.979 29.406 39.518 42.155 12.791 14.234 24.081 27.725 33.869 40.465h254.012zM401.041 351.923l-54.187 53.965c-7.526 7.492-12.791 13.107-15.804 16.853-6.025 5.248-13.926 9.557-23.706 12.928-9.788 3.379-18.074 1.314-24.841-6.178-6.025-8.243-7.526-16.299-4.523-24.166 3.021-7.868 6.409-14.054 10.172-18.551l16.93-15.744c8.277-8.986 17.314-18.731 27.093-29.218 11.29-11.998 23.714-24.738 37.257-38.229l-1.126-23.603h-76.774c-6.767 0-12.604-2.628-17.493-7.876-4.89-5.239-7.339-10.863-7.339-16.853 0-5.999 2.261-11.238 6.767-15.735 4.514-4.497 10.547-6.75 18.065-6.75h76.774v-39.347h-76.774c-6.767 0-12.604-2.057-17.493-6.178s-7.339-9.557-7.339-16.299c-0.759-5.999 1.314-11.059 6.204-15.181s11.11-6.187 18.628-6.187h76.774v-22.477c0.751-10.496 4.139-17.801 10.155-21.922 6.025-4.122 13.551-6.187 22.579-6.187 9.037-0.751 16.375 2.065 22.025 8.431 5.641 6.374 8.465 12.928 8.465 19.678v22.477h79.027c7.526 0 13.73 1.69 18.628 5.060 4.89 3.371 6.955 8.806 6.204 16.307 0 15.735-10.53 23.603-31.607 23.603h-72.252l1.126 38.221 73.387 1.126c10.53-0.751 18.057 1.314 22.571 6.187 4.523 4.864 6.775 10.675 6.775 17.417 0 5.999-2.441 11.426-7.339 16.307-4.89 4.864-12.604 7.305-23.142 7.305h-73.378v21.359c12.791 11.989 24.457 23.603 34.995 34.85 9.028 8.986 18.065 18.167 27.093 27.537 9.037 9.37 15.812 15.923 20.326 19.669 17.306 14.993 21.069 28.109 11.29 39.347-5.274 6.75-12.049 10.121-20.326 10.121s-15.804-3.004-22.579-8.994c-3.763-3.004-10.163-8.431-19.191-16.299s-18.065-15.923-27.093-24.175c-10.539-9.745-22.204-20.608-35.004-32.597v0z" />
<glyph unicode="&#xe92a;" glyph-name="k_place_cinema" horiz-adv-x="1023" d="M778.633 559.65c-45.141 0.239-85.982-26.769-103.424-68.412-17.442-41.651-8.055-89.711 23.782-121.719 31.838-32.017 79.838-41.668 121.574-24.448 41.728 17.229 68.958 57.924 68.958 103.074 0 61.355-49.545 111.181-110.891 111.505zM511.471 292.369c-44.851 0-85.282-27.025-102.451-68.471-17.161-41.438-7.671-89.139 24.038-120.866 31.71-31.71 79.411-41.207 120.849-24.038s68.454 57.609 68.454 102.468c0 61.252-49.647 110.908-110.891 110.908zM467.115 447.974c-0.171-18.065 10.581-34.441 27.23-41.463 16.64-7.014 35.874-3.277 48.691 9.463 12.809 12.74 16.657 31.949 9.737 48.64-6.921 16.683-23.236 27.537-41.301 27.469-11.733 0.043-23.006-4.574-31.326-12.851s-13.013-19.516-13.030-31.258zM511.471 825.916c-44.851 0-85.282-27.017-102.451-68.463-17.161-41.446-7.671-89.148 24.038-120.866s79.411-41.207 120.849-24.038c41.438 17.161 68.454 57.6 68.454 102.46 0 61.252-49.647 110.908-110.891 110.908zM244.309 559.479c-45.15 0.239-85.982-26.769-103.424-68.412-17.442-41.651-8.055-89.711 23.782-121.719 31.838-32.017 79.838-41.668 121.566-24.439 41.737 17.22 68.966 57.916 68.966 103.066 0 61.355-49.545 111.181-110.891 111.505zM799.445 24.653h117.717c22.34-2.782 39.108-21.76 39.108-44.271 0-22.519-16.768-41.506-39.108-44.279h-389.402c-1.655 0.034-3.311 0.213-4.941 0.512-3.584 0-7.253-0.512-11.093-0.512-253.261 0.034-468.42 185.318-506.052 435.806-37.641 250.487 113.553 490.837 355.627 565.316 242.065 74.487 502.204-39.305 611.849-267.631 109.645-228.335 35.831-502.537-173.619-644.941h-0.085z" />
<glyph unicode="&#xe92b;" glyph-name="k_place_company" d="M981.045 23.308h-42.656v518.057c0 31.497-22.045 64.905-49.771 74.477l-226.717 78.734c-35.2 12.276-64.701-7.652-64.701-44.541v-626.796h-85.321v872.58c0 49.157-37.179 75.757-81.183 59.3l-283.244-104.84c-34.551-12.839-62.141-57.313-62.141-99.303v-727.669h-42.656c-23.811-0.384-42.852-19.861-42.656-43.629 0-24.109 19.195-43.688 42.656-43.688h938.458c23.461 0 42.656 19.647 42.656 43.688 0.196 23.768-18.845 43.245-42.656 43.629h-0.068zM383.844 261.679h-170.633c-23.811 0.384-42.852 19.861-42.647 43.629 0 24.109 19.187 43.688 42.647 43.688h170.633c23.461 0 42.656-19.647 42.656-43.688 0.196-23.768-18.845-43.245-42.656-43.629v0zM383.844 436.167h-170.633c-23.836 0.392-42.886 19.912-42.647 43.697 0 24.126 19.187 43.697 42.647 43.697h170.633c23.461 0 42.656-19.647 42.656-43.697 0.196-23.751-18.845-43.228-42.656-43.62v-0.077zM383.844 610.878h-170.633c-23.836 0.392-42.886 19.912-42.647 43.697 0 24.049 19.187 43.629 42.647 43.629h170.633c23.461 0 42.656-19.579 42.656-43.629 0.239-23.785-18.82-43.304-42.656-43.697v0zM810.413 261.679h-85.312c-23.811 0.384-42.861 19.861-42.656 43.629 0 24.109 19.187 43.688 42.656 43.688h85.312c23.461 0 42.665-19.647 42.665-43.688 0.188-23.768-18.845-43.245-42.665-43.629v0zM810.413 436.167h-85.312c-23.845 0.392-42.895 19.912-42.656 43.697 0 24.126 19.187 43.697 42.656 43.697h85.312c23.461 0 42.665-19.647 42.665-43.697 0.188-23.751-18.845-43.228-42.665-43.62v-0.077z" />
<glyph unicode="&#xe92c;" glyph-name="k_place_entertain" horiz-adv-x="1025" d="M874.44 589.051c-32.058 0-61.773 13.588-86.213 31.571 86.213 130.585 86.213 133.629 86.213 133.629h-150.859c0 68.187 67.546 156.076 150.859 156.076 83.322 0 150.859-74.284 150.859-162.155 0-87.88-67.537-159.12-150.859-159.12zM522.159 375.196c-20.412-26.611-31.554-59.798-31.554-94.020v-255.132h17.47c47.621 0 86.204-45.030 86.204-90.061h-301.727c0 23.157 9.706 47.305 25.217 63.903 15.734 16.358 37.283 26.158 60.987 26.158h15.033v255.132c0 34.222-11.151 67.409-31.571 94.020l-264.846 345.022h165.225l-120.905 149.825h-141.624v90.061h184.722l186.501-239.894h415.731l-264.863-345.013z" />
<glyph unicode="&#xe92d;" glyph-name="k_place_gasStation" horiz-adv-x="1025" d="M682.803 42.573v469.419h31.753c17.929 0 31.761-14.336 31.761-31.744v-298.436c0-76.783 61.969-138.726 138.786-138.726 76.826 0 139.307 61.943 139.307 138.214v574.353c0 30.199-12.288 57.335-32.265 76.783l-113.186 112.111c-20.489 20.48-53.777 20.48-74.266 0-20.48-20.48-20.48-53.751 0-74.231l73.242-73.711-54.289-56.311c-17.92-17.911-17.92-47.095 0-65.519 8.713-9.216 20.489-13.824 32.265-13.824h61.466v-480.162c0-17.92-14.345-31.735-31.761-31.735-17.92 0-31.744 14.336-31.744 31.735v298.948c0 76.783-61.978 138.726-138.803 138.726h-31.753v255.949c0 47.095-38.409 85.487-85.53 85.487h-448.137c-47.113 0-85.53-38.391-85.53-85.487v-831.838h-10.761c-29.193 0-53.257-24.055-53.257-53.239 0-29.175 24.064-53.239 53.257-53.239h640.196c29.193 0 53.265 24.064 53.265 53.239 0 29.184-24.073 53.239-53.265 53.239h-10.752zM217.762 853.427h311.398c26.121 0 47.121-20.992 47.121-47.095v-226.261c0-26.103-21.001-47.095-47.121-47.095h-311.398c-26.112 0-47.113 20.992-47.113 47.095v226.261c0 26.103 21.001 47.095 47.113 47.095v0z" />
<glyph unicode="&#xe92e;" glyph-name="k_place_government" horiz-adv-x="1023" d="M0.188 309.36v-373.258l144.807 0.154v426.453l-98.306-0.026c-28.649-3.335-49.247-26.943-46.5-53.324v0zM976.8 362.684l-89.777 0.026v-426.453l136.277-0.154v373.258c2.738 26.38-17.851 49.989-46.5 53.324v0zM790.773 959.898l-560.488-0.154c-25.681 0-42.645-19.088-42.645-42.645v-980.843h136.465v127.936c0 23.557 16.964 42.645 42.645 42.645h289.988c25.681 0 42.645-19.088 42.645-42.645v-127.936h136.465v980.843c0 23.557-19.387 42.799-45.076 42.799v0zM324.105 874.453h93.82v-85.291h-93.82v85.291zM324.105 703.872h93.82v-85.291h-93.82v85.291zM324.105 448v85.291h93.82v-85.291h-93.82zM587.551 192.051l-75.806 37.963-75.806-37.963 14.414 80.625-60.923 57.588 84.182 11.514 38.133 73.802 37.664-73.376 84.173-11.514-60.454-57.588 14.423-81.052zM699.384 448h-94.63v85.316l94.63-0.026v-85.291zM699.384 618.581l-94.63 0.051v85.316l94.63-0.077v-85.291zM697.763 789.265h-93.009v85.316l94.63-0.128-1.621-85.188z" />
<glyph unicode="&#xe92f;" glyph-name="k_place_hospital" d="M985.488-64.102h-946.72c-21.415 0-38.768 16.764-38.768 37.462v49.95c0 20.69 17.353 37.454 38.768 37.454h46.945l-0.358 796.811c0 55.173 45.34 102.426 102.426 102.426h452.38c57.094 0 93.89-47.252 93.89-102.426v-793.798h51.213v392.631c0 13.793 11.327 25.606 25.606 25.606 0 0 73.029-1.11 76.819 0 38.794 0.248 51.008-34.867 50.854-71.595l0.358-346.642h51.213c21.407 0 34.142-19.777 34.142-40.467v-49.95c0-20.699-17.361-37.462-38.768-37.462v0zM473.36 110.721c0-13.793 11.574-24.975 25.845-24.975h25.845c14.271 0 25.845 11.181 25.845 24.975v74.916c0 13.802-11.574 24.983-25.845 24.983h-25.845c-14.271 0-25.845-11.181-25.845-24.983v-74.916zM473.36 285.536c0-13.793 11.574-24.975 25.845-24.975h25.845c14.271 0 25.845 11.181 25.845 24.975v74.924c0 13.793-11.574 24.975-25.845 24.975h-25.845c-14.271 0-25.845-11.181-25.845-24.975v-74.924zM266.622 110.721c0-13.793 11.566-24.975 25.837-24.975h25.845c14.271 0 25.845 11.181 25.845 24.975v74.916c0 13.802-11.574 24.983-25.845 24.983h-25.845c-14.271 0-25.837-11.181-25.837-24.983v-74.916zM266.622 285.536c0-13.793 11.566-24.975 25.837-24.975h25.845c14.271 0 25.845 11.181 25.845 24.975v74.924c0 13.793-11.574 24.975-25.845 24.975h-25.845c-14.271 0-25.837-11.181-25.837-24.975v-74.924zM571.876 721.007c0 20.69-12.735 34.142-34.142 34.142h-68.284v68.284c0 20.69-12.735 34.142-34.142 34.142h-51.213c-21.407 0-34.142-13.452-34.142-34.142v-68.284h-68.284c-21.407 0-34.142-13.452-34.142-34.142v-51.213c0-20.69 12.735-34.142 34.142-34.142h68.284v-59.748c0-20.69 12.735-42.677 34.142-42.677h51.213c21.407 0 34.142 21.987 34.142 42.677v59.748h68.284c21.407 0 34.142 13.452 34.142 34.142v51.213z" />
<glyph unicode="&#xe930;" glyph-name="k_place_hotel" d="M940.228 184.439l83.78-85.82h-94.259v-68.753h60.117c21.402 0 34.133-19.772 34.133-40.457v-36.343h-1024v34.133c0 20.685 21.265 42.667 42.667 42.667h42.667v810.667c0 55.159 45.329 102.4 102.4 102.4h469.333c57.079 0 93.867-47.241 93.867-102.4v-59.733h25.6v42.667c0 23.569 19.098 42.667 42.667 42.667h102.4c23.561 0 42.667-19.098 42.667-42.667v-341.333c0-23.561-19.106-42.667-42.667-42.667h-102.4c-23.569 0-42.667 19.106-42.667 42.667v34.133h-25.6v-486.4h136.917v68.753h-94.268l83.789 85.82h-62.839l68.548 85.828h-58.069l83.789 118.016 83.789-118.016h-58.078l68.557-85.828h-62.839zM460.8 115.2c0-13.79 11.332-25.6 25.6-25.6h51.2c14.268 0 25.6 11.81 25.6 25.6v59.733c0 13.79-11.332 25.6-25.6 25.6h-51.2c-14.268 0-25.6-11.81-25.6-25.6v-59.733zM460.8 294.4c0-13.79 11.332-25.6 25.6-25.6h51.2c14.268 0 25.6 11.81 25.6 25.6v59.733c0 13.79-11.332 25.6-25.6 25.6h-51.2c-14.268 0-25.6-11.81-25.6-25.6v-59.733zM264.533 115.2c0-13.79 11.332-25.6 25.6-25.6h51.2c14.268 0 25.6 11.81 25.6 25.6v59.733c0 13.79-11.332 25.6-25.6 25.6h-51.2c-14.268 0-25.6-11.81-25.6-25.6v-59.733zM264.533 294.4c0-13.79 11.332-25.6 25.6-25.6h51.2c14.268 0 25.6 11.81 25.6 25.6v59.733c0 13.79-11.332 25.6-25.6 25.6h-51.2c-14.268 0-25.6-11.81-25.6-25.6v-59.733zM469.47 828.996c-31.044 12.595-63.573 14.532-93.833 7.535 64.503-26.163 97.587-103.629 72.277-170.291-25.318-66.662-98.125-99.499-162.637-73.335-7.228 2.935-14.379 7.305-20.745 11.383 16.802-37.555 47.095-68.727 87.313-85.035 82.765-33.57 176.196 8.559 208.674 94.097 32.478 85.53-8.286 182.084-91.051 215.646zM810.667 499.2c0-23.561 2.039-25.6 25.6-25.6h68.267c23.561 0 25.6 2.039 25.6 25.6v307.2c0 23.561-2.039 25.6-25.6 25.6h-68.267c-23.561 0-25.6-2.039-25.6-25.6v-307.2zM776.533 550.4v196.267h-25.6v-196.267h25.6zM872.218 735.727c12.134 0 22.007-3.533 29.628-10.624 7.612-7.083 11.426-16.435 11.426-28.075 0-11.068-3.686-19.977-11.051-26.718-7.373-6.758-16.836-10.129-28.399-10.129-12.066 0-21.862 3.507-29.38 10.522-7.518 7.023-11.273 16.213-11.273 27.58 0 11.102 3.644 20.113 10.923 27.051 7.287 6.929 16.657 10.394 28.126 10.394zM854.34 682.88c4.591-3.601 10.743-5.402 18.483-5.402 8.064 0 14.438 1.749 19.123 5.248 4.676 3.507 7.023 8.439 7.023 14.805 0 6.468-2.398 11.554-7.202 15.275-4.796 3.721-11.017 5.572-18.645 5.572-7.535 0-13.696-1.818-18.475-5.444-4.787-3.635-7.177-8.619-7.177-14.95 0-6.468 2.287-11.503 6.869-15.104zM898.466 654.327h13.5v-60.698h-13.5v22.101h-63.949v16.546h63.949v22.050zM911.966 538.982h-13.5v27.546h-18.244v-25.6h-13.449v25.6h-18.756v-29.346h-13.5v45.85h77.449v-44.049zM911.966 507.981h-63.949v-28.954h-13.5v45.457h77.449v-16.503zM834.517 765.483h31.949v32.998h-31.949v16.503h77.449v-16.503h-31.249v-32.998h31.249v-16.503h-77.449v16.503z" />
<glyph unicode="&#xe931;" glyph-name="k_place_market" horiz-adv-x="1025" d="M550.788 26.326c0-49.93 41.14-90.42 91.865-90.42 50.743 0 91.882 40.49 91.882 90.42 0 49.913-41.14 90.403-91.882 90.403-50.725 0-91.865-40.49-91.865-90.403v0zM122.153 26.326c0-49.93 41.14-90.42 91.874-90.42s91.874 40.49 91.874 90.42c0 49.913-41.14 90.403-91.874 90.403s-91.711-40.49-91.874-90.403v0zM244.588 779.058h734.022c34.145 0 53.496-26.090 43.414-56.968l-147.157-458.145c-12.527-32.956-43.91-55.206-79.526-56.805h-611.561c-33.82-0.154-61.303 26.722-61.466 59.849v512.068c0.162 33.119-27.158 60.166-60.978 60.166h-0.325c-33.657-0.162-61.141 26.722-61.141 60.003v0.316c0 33.444 27.808 60.328 61.628 60.328h60.653c67.973 0 122.435-54.248 122.435-120.811v-60.003z" />
<glyph unicode="&#xe932;" glyph-name="k_place_park" d="M1014.562 525.278c-24.329-70.844-90.726-118.281-165.205-118.042-16.973 0.256-33.775 3.072-49.929 8.294v-334.933c0-6.665-2.637-13.056-7.313-17.775-4.685-4.71-11.034-7.356-17.655-7.356h-49.929c-13.79 0-24.969 11.247-24.969 25.131v385.442c-16.119-5.385-32.956-8.269-49.929-8.55-81.894-0.188-152.883 57.003-170.607 137.463-17.741 80.469 22.562 162.5 96.853 197.171-0.751 5.683-1.152 11.409-1.152 17.143-0.060 62.652 38.426 118.793 96.64 140.979s123.998 5.777 165.18-41.207c46.771 4.924 92.297-17.058 117.76-56.841 25.463-39.774 26.513-90.59 2.731-131.405 58.735-46.097 81.852-124.672 57.523-195.516zM567.467 356.983v-50.253c0-33.502-16.64-50.253-49.929-50.253h-349.525c-33.289 0-49.937 16.751-49.937 50.253v50.253c0 33.502 16.649 50.253 49.937 50.253h349.525c33.289 0 49.929-16.751 49.929-50.253zM610.091 198.869c4.676-4.71 7.305-11.102 7.305-17.766v-100.506c0-13.884-11.17-25.131-24.96-25.131s-24.969 11.247-24.969 25.131v25.122h-449.391v-25.122c0-13.884-11.17-25.131-24.969-25.131-13.781 0-24.96 11.247-24.96 25.131v100.506c0 6.665 2.628 13.056 7.313 17.766s11.034 7.356 17.647 7.356h499.328c6.622 0 12.971-2.645 17.655-7.356zM1024-27.657v-36.343h-1024v34.133c0 20.685 21.265 42.667 42.667 42.667h947.2c21.402 0 34.133-19.772 34.133-40.457z" />
<glyph unicode="&#xe933;" glyph-name="k_place_policeStation" d="M870.887 474.023v-538.082h-717.773v538.082h-153.19l512.077 486.046 512.077-486.046h-153.19zM660.153 522.012c0 0-34.893-16.862-70.478-12.917-38.547 4.551-77.675 38.266-77.675 38.266s-39.128-33.715-77.675-38.266c-34.902-3.944-70.478 12.917-70.478 12.917l-54.803-84.164c0 0 31.342-29.164 31.342-54.385 0-67.43-27.107-46.632-27.107-134.74 0-117.879 198.721-168.327 198.721-168.327s198.721 50.449 198.721 168.327c0 88.714-27.115 67.43-27.115 134.74 0 24.605 31.35 54.385 31.35 54.385l-54.803 84.164zM574.7 210.578l-66.243 33.595-66.243-33.595 7.778 84.172-50.568 58.935 74.021 16.853 35.013 71.246 34.893-71.246 74.021-16.853-50.577-58.935 7.906-84.172z" />
<glyph unicode="&#xe934;" glyph-name="k_place_religious" horiz-adv-x="1023" d="M1008.068-63.966l-154.991-0.034v452.267l154.991-91.494c7.697-3.447 15.497-7.049 15.497-15.514v-329.737c0-8.465-6.946-15.488-15.497-15.488zM631.211 217.6c0 64.862-54.562 120.337-119.45 120.337h-0.051c-64.879 0-119.433-55.475-119.433-120.337v-281.6h-170.667v469.333l221.867 153.6h17.067v179.2h-110.933v110.933h110.933v110.933h102.4v-110.933h110.933v-110.933h-110.933v-179.2h17.067l221.867-153.6v-469.333h-170.667v281.6zM-0.077-48.478v329.737c0 8.465 7.765 12.066 15.497 15.514l154.991 100.028v-460.8l-154.991 0.034c-8.55 0-15.497 7.023-15.497 15.488z" />
<glyph unicode="&#xe935;" glyph-name="home" d="M1024 369.556l-512 397.426-512-397.428v162.038l512 397.426 512-397.428zM896 384v-384h-256v256h-256v-256h-256v384l384 288z" />
<glyph unicode="&#xe936;" glyph-name="home2" d="M512 928l-512-512 96-96 96 96v-416h256v192h128v-192h256v416l96-96 96 96-512 512zM512 512c-35.346 0-64 28.654-64 64s28.654 64 64 64c35.346 0 64-28.654 64-64s-28.654-64-64-64z" />
<glyph unicode="&#xe937;" glyph-name="home3" d="M1024 352l-192 192v288h-128v-160l-192 192-512-512v-32h128v-320h320v192h128v-192h320v320h128z" />
<glyph unicode="&#xe938;" glyph-name="office" d="M0-64h512v1024h-512v-1024zM320 832h128v-128h-128v128zM320 576h128v-128h-128v128zM320 320h128v-128h-128v128zM64 832h128v-128h-128v128zM64 576h128v-128h-128v128zM64 320h128v-128h-128v128zM576 640h448v-64h-448zM576-64h128v256h192v-256h128v576h-448z" />
<glyph unicode="&#xe939;" glyph-name="newspaper" d="M896 704v128h-896v-704c0-35.346 28.654-64 64-64h864c53.022 0 96 42.978 96 96v544h-128zM832 128h-768v640h768v-640zM128 640h640v-64h-640zM512 512h256v-64h-256zM512 384h256v-64h-256zM512 256h192v-64h-192zM128 512h320v-320h-320z" />
<glyph unicode="&#xe93a;" glyph-name="pencil" d="M864 960c88.364 0 160-71.634 160-160 0-36.020-11.91-69.258-32-96l-64-64-224 224 64 64c26.742 20.090 59.978 32 96 32zM64 224l-64-288 288 64 592 592-224 224-592-592zM715.578 596.422l-448-448-55.156 55.156 448 448 55.156-55.156z" />
<glyph unicode="&#xe93b;" glyph-name="pencil2" d="M384 320l128 64 448 448-64 64-448-448-64-128zM289.3 92.902c-31.632 66.728-65.666 100.762-132.396 132.394l99.096 272.792 128 77.912 384 384h-192l-384-384-192-640 640 192 384 384v192l-384-384-77.912-128z" />
<glyph unicode="&#xe93c;" glyph-name="quill" d="M0-64c128 384 463 1024 1024 1024-263-211-384-704-576-704s-192 0-192 0l-192-320h-64z" />
<glyph unicode="&#xe93d;" glyph-name="pen" d="M1018.17 668.11l-286.058 286.058c-9.334 9.334-21.644 7.234-27.356-4.666l-38.354-79.904 267.198-267.198 79.904 38.354c11.9 5.712 14 18.022 4.666 27.356zM615.384 824.616l-263.384-21.95c-17.5-2.166-32.080-5.898-37.090-28.752-0.006-0.024-0.012-0.042-0.018-0.066-71.422-343.070-314.892-677.848-314.892-677.848l57.374-57.374 271.986 271.99c-5.996 12.53-9.36 26.564-9.36 41.384 0 53.020 42.98 96 96 96s96-42.98 96-96-42.98-96-96-96c-14.82 0-28.852 3.364-41.384 9.36l-271.988-271.986 57.372-57.374c0 0 334.778 243.47 677.848 314.892 0.024 0.006 0.042 0.012 0.066 0.018 22.854 5.010 26.586 19.59 28.752 37.090l21.95 263.384-273.232 273.232z" />
<glyph unicode="&#xe93e;" glyph-name="blog" d="M384 960v-96c73.482 0 144.712-14.37 211.716-42.71 64.768-27.394 122.958-66.632 172.948-116.624s89.228-108.18 116.624-172.948c28.342-67.004 42.712-138.238 42.712-211.718h96c0 353.46-286.54 640-640 640zM384 768v-96c94.022 0 182.418-36.614 248.9-103.098 66.486-66.484 103.1-154.878 103.1-248.902h96c0 247.422-200.576 448-448 448zM480 576l-64-64-224-64-192-416 25.374-25.374 232.804 232.804c-1.412 5.286-2.178 10.84-2.178 16.57 0 35.346 28.654 64 64 64s64-28.654 64-64-28.654-64-64-64c-5.732 0-11.282 0.764-16.568 2.178l-232.804-232.804 25.372-25.374 416 192 64 224 64 64-160 160z" />
<glyph unicode="&#xe93f;" glyph-name="eyedropper" d="M986.51 922.51c-49.988 49.986-131.032 49.986-181.020 0l-172.118-172.118-121.372 121.372-135.764-135.764 106.426-106.426-472.118-472.118c-8.048-8.048-11.468-18.958-10.3-29.456h-0.244v-160c0-17.674 14.328-32 32-32h160c0 0 2.664 0 4 0 9.212 0 18.426 3.516 25.456 10.544l472.118 472.118 106.426-106.426 135.764 135.764-121.372 121.372 172.118 172.118c49.986 49.988 49.986 131.032 0 181.020zM173.090 0h-109.090v109.090l469.574 469.572 109.088-109.088-469.572-469.574z" />
<glyph unicode="&#xe940;" glyph-name="droplet" d="M864.626 486.838c-65.754 183.44-205.11 348.15-352.626 473.162-147.516-125.012-286.87-289.722-352.626-473.162-40.664-113.436-44.682-236.562 12.584-345.4 65.846-125.14 198.632-205.438 340.042-205.438s274.196 80.298 340.040 205.44c57.27 108.838 53.25 231.962 12.586 345.398zM738.764 201.044c-43.802-83.252-132.812-137.044-226.764-137.044-55.12 0-108.524 18.536-152.112 50.652 13.242-1.724 26.632-2.652 40.112-2.652 117.426 0 228.668 67.214 283.402 171.242 44.878 85.292 40.978 173.848 23.882 244.338 14.558-28.15 26.906-56.198 36.848-83.932 22.606-63.062 40.024-156.34-5.368-242.604z" />
<glyph unicode="&#xe941;" glyph-name="paint-format" d="M1024 384v384h-192v64c0 35.2-28.8 64-64 64h-704c-35.2 0-64-28.8-64-64v-192c0-35.2 28.8-64 64-64h704c35.2 0 64 28.8 64 64v64h128v-256h-576v-128h-32c-17.674 0-32-14.326-32-32v-320c0-17.674 14.326-32 32-32h128c17.674 0 32 14.326 32 32v320c0 17.674-14.326 32-32 32h-32v64h576zM768 768h-704v64h704v-64z" />
<glyph unicode="&#xe942;" glyph-name="image" d="M959.884 832c0.040-0.034 0.082-0.076 0.116-0.116v-767.77c-0.034-0.040-0.076-0.082-0.116-0.116h-895.77c-0.040 0.034-0.082 0.076-0.114 0.116v767.772c0.034 0.040 0.076 0.082 0.114 0.114h895.77zM960 896h-896c-35.2 0-64-28.8-64-64v-768c0-35.2 28.8-64 64-64h896c35.2 0 64 28.8 64 64v768c0 35.2-28.8 64-64 64v0zM832 672c0-53.020-42.98-96-96-96s-96 42.98-96 96 42.98 96 96 96 96-42.98 96-96zM896 128h-768v128l224 384 256-320h64l224 192z" />
<glyph unicode="&#xe943;" glyph-name="images" horiz-adv-x="1152" d="M1088 832h-64v64c0 35.2-28.8 64-64 64h-896c-35.2 0-64-28.8-64-64v-768c0-35.2 28.8-64 64-64h64v-64c0-35.2 28.8-64 64-64h896c35.2 0 64 28.8 64 64v768c0 35.2-28.8 64-64 64zM128 768v-640h-63.886c-0.040 0.034-0.082 0.076-0.114 0.116v767.77c0.034 0.040 0.076 0.082 0.114 0.114h895.77c0.040-0.034 0.082-0.076 0.116-0.116v-63.884h-768c-35.2 0-64-28.8-64-64v0zM1088 0.116c-0.034-0.040-0.076-0.082-0.116-0.116h-895.77c-0.040 0.034-0.082 0.076-0.114 0.116v767.77c0.034 0.040 0.076 0.082 0.114 0.114h895.77c0.040-0.034 0.082-0.076 0.116-0.116v-767.768zM960 608c0-53.020-42.98-96-96-96s-96 42.98-96 96 42.98 96 96 96 96-42.98 96-96zM1024 64h-768v128l224 384 256-320h64l224 192z" />
<glyph unicode="&#xe944;" glyph-name="camera" d="M304 352c0-114.876 93.124-208 208-208s208 93.124 208 208-93.124 208-208 208-208-93.124-208-208zM960 704h-224c-16 64-32 128-96 128h-256c-64 0-80-64-96-128h-224c-35.2 0-64-28.8-64-64v-576c0-35.2 28.8-64 64-64h896c35.2 0 64 28.8 64 64v576c0 35.2-28.8 64-64 64zM512 68c-156.85 0-284 127.148-284 284 0 156.85 127.15 284 284 284 156.852 0 284-127.15 284-284 0-156.852-127.146-284-284-284zM960 512h-128v64h128v-64z" />
<glyph unicode="&#xe945;" glyph-name="headphones" d="M288 384h-64v-448h64c17.6 0 32 14.4 32 32v384c0 17.6-14.4 32-32 32zM736 384c-17.602 0-32-14.4-32-32v-384c0-17.6 14.398-32 32-32h64v448h-64zM1024 448c0 282.77-229.23 512-512 512s-512-229.23-512-512c0-61.412 10.83-120.29 30.656-174.848-19.478-33.206-30.656-71.87-30.656-113.152 0-112.846 83.448-206.188 192-221.716v443.418c-31.914-4.566-61.664-15.842-87.754-32.378-5.392 26.718-8.246 54.364-8.246 82.676 0 229.75 186.25 416 416 416s416-186.25 416-416c0-28.314-2.83-55.968-8.22-82.696-26.1 16.546-55.854 27.848-87.78 32.418v-443.44c108.548 15.532 192 108.874 192 221.714 0 41.274-11.178 79.934-30.648 113.138 19.828 54.566 30.648 113.452 30.648 174.866z" />
<glyph unicode="&#xe946;" glyph-name="music" d="M960 960h64v-736c0-88.366-100.29-160-224-160s-224 71.634-224 160c0 88.368 100.29 160 224 160 62.684 0 119.342-18.4 160-48.040v368.040l-512-113.778v-494.222c0-88.366-100.288-160-224-160s-224 71.634-224 160c0 88.368 100.288 160 224 160 62.684 0 119.342-18.4 160-48.040v624.040l576 128z" />
<glyph unicode="&#xe947;" glyph-name="play" d="M981.188 799.892c-143.632 20.65-302.332 32.108-469.186 32.108-166.86 0-325.556-11.458-469.194-32.108-27.53-107.726-42.808-226.75-42.808-351.892 0-125.14 15.278-244.166 42.808-351.89 143.638-20.652 302.336-32.11 469.194-32.11 166.854 0 325.552 11.458 469.186 32.11 27.532 107.724 42.812 226.75 42.812 351.89 0 125.142-15.28 244.166-42.812 351.892zM384.002 256v384l320-192-320-192z" />
<glyph unicode="&#xe948;" glyph-name="film" d="M0 832v-768h1024v768h-1024zM192 128h-128v128h128v-128zM192 384h-128v128h128v-128zM192 640h-128v128h128v-128zM768 128h-512v640h512v-640zM960 128h-128v128h128v-128zM960 384h-128v128h128v-128zM960 640h-128v128h128v-128zM384 640v-384l256 192z" />
<glyph unicode="&#xe949;" glyph-name="video-camera" d="M384 672c0 88.366 71.634 160 160 160s160-71.634 160-160c0-88.366-71.634-160-160-160s-160 71.634-160 160zM0 672c0 88.366 71.634 160 160 160s160-71.634 160-160c0-88.366-71.634-160-160-160s-160 71.634-160 160zM768 352v96c0 35.2-28.8 64-64 64h-640c-35.2 0-64-28.8-64-64v-320c0-35.2 28.8-64 64-64h640c35.2 0 64 28.8 64 64v96l256-160v448l-256-160zM640 192h-512v192h512v-192z" />
<glyph unicode="&#xe94a;" glyph-name="dice" d="M864 768h-512c-88 0-160-72-160-160v-512c0-88 72-160 160-160h512c88 0 160 72 160 160v512c0 88-72 160-160 160zM416 64c-53.020 0-96 42.98-96 96s42.98 96 96 96 96-42.98 96-96-42.98-96-96-96zM416 448c-53.020 0-96 42.98-96 96s42.98 96 96 96 96-42.98 96-96-42.98-96-96-96zM608 256c-53.020 0-96 42.98-96 96s42.98 96 96 96 96-42.98 96-96-42.98-96-96-96zM800 64c-53.020 0-96 42.98-96 96s42.98 96 96 96 96-42.98 96-96-42.98-96-96-96zM800 448c-53.020 0-96 42.98-96 96s42.98 96 96 96 96-42.98 96-96-42.98-96-96-96zM828.76 832c-14.93 72.804-79.71 128-156.76 128h-512c-88 0-160-72-160-160v-512c0-77.046 55.196-141.83 128-156.76v636.76c0 35.2 28.8 64 64 64h636.76z" />
<glyph unicode="&#xe94b;" glyph-name="pacman" d="M964.73 781.196c-93.902 109.45-233.21 178.804-388.73 178.804-282.77 0-512-229.23-512-512s229.23-512 512-512c155.52 0 294.828 69.356 388.728 178.804l-324.728 333.196 324.73 333.196zM704 839.398c39.432 0 71.398-31.964 71.398-71.398 0-39.432-31.966-71.398-71.398-71.398s-71.398 31.966-71.398 71.398c0 39.432 31.966 71.398 71.398 71.398z" />
<glyph unicode="&#xe94c;" glyph-name="spades" d="M817.57 611.85c-193.566 143.858-260.266 259.018-305.566 348.148v0c-0.004 0-0.004 0.002-0.004 0.002v-0.002c-45.296-89.13-112-204.292-305.566-348.148-330.036-245.286-19.376-587.668 253.758-399.224-17.796-116.93-78.53-202.172-140.208-238.882v-37.744h384.032v37.74c-61.682 36.708-122.41 121.954-140.212 238.884 273.136-188.446 583.8 153.94 253.766 399.226z" />
<glyph unicode="&#xe94d;" glyph-name="clubs" d="M786.832 567.228c-59.032 0-112.086-24.596-149.852-64.694-15.996-16.984-43.762-37.112-73.8-54.81 14.11 53.868 58.676 121.7 89.628 151.456 39.64 38.17 63.984 91.83 63.984 151.5 0.006 114.894-91.476 208.096-204.788 209.32-113.32-1.222-204.796-94.426-204.796-209.318 0-59.672 24.344-113.33 63.986-151.5 30.954-29.756 75.52-97.588 89.628-151.456-30.042 17.7-57.806 37.826-73.8 54.81-37.768 40.098-90.82 64.694-149.85 64.694-114.386 0-207.080-93.664-207.080-209.328 0-115.638 92.692-209.338 207.080-209.338 59.042 0 112.082 25.356 149.85 65.452 16.804 17.872 46.444 40.138 78.292 58.632-3.002-147.692-73.532-256.168-145.318-298.906v-37.742h384.014v37.74c-71.792 42.736-142.32 151.216-145.32 298.906 31.852-18.494 61.488-40.768 78.292-58.632 37.766-40.094 90.808-65.452 149.852-65.452 114.386 0 207.078 93.7 207.078 209.338-0.002 115.664-92.692 209.328-207.080 209.328z" />
<glyph unicode="&#xe94e;" glyph-name="diamonds" d="M512 960l-320-512 320-512 320 512z" />
<glyph unicode="&#xe94f;" glyph-name="bullhorn" d="M1024 530.744c0 200.926-58.792 363.938-131.482 365.226 0.292 0.006 0.578 0.030 0.872 0.030h-82.942c0 0-194.8-146.336-475.23-203.754-8.56-45.292-14.030-99.274-14.030-161.502s5.466-116.208 14.030-161.5c280.428-57.418 475.23-203.756 475.23-203.756h82.942c-0.292 0-0.578 0.024-0.872 0.032 72.696 1.288 131.482 164.298 131.482 365.224zM864.824 220.748c-9.382 0-19.532 9.742-24.746 15.548-12.63 14.064-24.792 35.96-35.188 63.328-23.256 61.232-36.066 143.31-36.066 231.124 0 87.81 12.81 169.89 36.066 231.122 10.394 27.368 22.562 49.266 35.188 63.328 5.214 5.812 15.364 15.552 24.746 15.552 9.38 0 19.536-9.744 24.744-15.552 12.634-14.064 24.796-35.958 35.188-63.328 23.258-61.23 36.068-143.312 36.068-231.122 0-87.804-12.81-169.888-36.068-231.124-10.39-27.368-22.562-49.264-35.188-63.328-5.208-5.806-15.36-15.548-24.744-15.548zM251.812 530.744c0 51.95 3.81 102.43 11.052 149.094-47.372-6.554-88.942-10.324-140.34-10.324-67.058 0-67.058 0-67.058 0l-55.466-94.686v-88.17l55.46-94.686c0 0 0 0 67.060 0 51.398 0 92.968-3.774 140.34-10.324-7.236 46.664-11.048 97.146-11.048 149.096zM368.15 317.828l-127.998 24.51 81.842-321.544c4.236-16.634 20.744-25.038 36.686-18.654l118.556 47.452c15.944 6.376 22.328 23.964 14.196 39.084l-123.282 229.152zM864.824 411.27c-3.618 0-7.528 3.754-9.538 5.992-4.87 5.42-9.556 13.86-13.562 24.408-8.962 23.6-13.9 55.234-13.9 89.078s4.938 65.478 13.9 89.078c4.006 10.548 8.696 18.988 13.562 24.408 2.010 2.24 5.92 5.994 9.538 5.994 3.616 0 7.53-3.756 9.538-5.994 4.87-5.42 9.556-13.858 13.56-24.408 8.964-23.598 13.902-55.234 13.902-89.078 0-33.842-4.938-65.478-13.902-89.078-4.004-10.548-8.696-18.988-13.56-24.408-2.008-2.238-5.92-5.992-9.538-5.992z" />
<glyph unicode="&#xe950;" glyph-name="connection" horiz-adv-x="1280" d="M640 384c105.87 0 201.87-43.066 271.402-112.598l-90.468-90.468c-46.354 46.356-110.356 75.066-180.934 75.066s-134.578-28.71-180.934-75.066l-90.468 90.468c69.532 69.532 165.532 112.598 271.402 112.598zM187.452 452.548c120.88 120.88 281.598 187.452 452.548 187.452s331.668-66.572 452.55-187.452l-90.51-90.508c-96.706 96.704-225.28 149.96-362.040 149.96-136.762 0-265.334-53.256-362.038-149.962l-90.51 90.51zM988.784 825.562c106.702-45.132 202.516-109.728 284.782-191.996v0l-90.508-90.508c-145.056 145.056-337.92 224.942-543.058 224.942-205.14 0-398-79.886-543.058-224.942l-90.51 90.51c82.268 82.266 178.082 146.862 284.784 191.994 110.504 46.738 227.852 70.438 348.784 70.438s238.278-23.7 348.784-70.438zM576 64c0 35.346 28.654 64 64 64s64-28.654 64-64c0-35.346-28.654-64-64-64s-64 28.654-64 64z" />
<glyph unicode="&#xe951;" glyph-name="podcast" d="M1024 448c0 282.77-229.23 512-512 512s-512-229.23-512-512c0-220.054 138.836-407.664 333.686-480.068l-13.686-31.932h384l-13.686 31.932c194.85 72.404 333.686 260.014 333.686 480.068zM486.79 325.174c-22.808 9.788-38.79 32.436-38.79 58.826 0 35.346 28.654 64 64 64s64-28.654 64-64c0-26.39-15.978-49.044-38.786-58.834l-25.214 58.834-25.21-58.826zM538.268 322.708c58.092 12.118 101.732 63.602 101.732 125.292 0 70.694-57.306 128-128 128-70.692 0-128-57.306-128-128 0-61.692 43.662-113.122 101.76-125.228l-74.624-174.122c-91.23 39.15-155.136 129.784-155.136 235.35 0 141.384 114.616 268 256 268s256-126.616 256-268c0-105.566-63.906-196.2-155.136-235.35l-74.596 174.058zM688.448-27.708l-73.924 172.486c126.446 42.738 217.476 162.346 217.476 303.222 0 176.73-143.268 320-320 320-176.73 0-320-143.27-320-320 0-140.876 91.030-260.484 217.476-303.222l-73.924-172.486c-159.594 68.488-271.386 227.034-271.386 411.708 0 247.332 200.502 459.834 447.834 459.834s447.834-212.502 447.834-459.834c0-184.674-111.792-343.22-271.386-411.708z" />
<glyph unicode="&#xe952;" glyph-name="feed" d="M384 448c0 70.692 57.308 128 128 128s128-57.308 128-128c0-70.692-57.308-128-128-128s-128 57.308-128 128zM664.348 729.474c99.852-54.158 167.652-159.898 167.652-281.474s-67.8-227.316-167.652-281.474c44.066 70.126 71.652 170.27 71.652 281.474s-27.586 211.348-71.652 281.474zM288 448c0-111.204 27.584-211.348 71.652-281.474-99.852 54.16-167.652 159.898-167.652 281.474s67.8 227.314 167.652 281.474c-44.068-70.126-71.652-170.27-71.652-281.474zM96 448c0-171.9 54.404-326.184 140.652-431.722-142.302 90.948-236.652 250.314-236.652 431.722s94.35 340.774 236.652 431.722c-86.248-105.538-140.652-259.822-140.652-431.722zM787.352 879.72c142.298-90.946 236.648-250.312 236.648-431.72s-94.35-340.774-236.648-431.72c86.244 105.536 140.648 259.82 140.648 431.72s-54.404 326.184-140.648 431.72z" />
<glyph unicode="&#xe953;" glyph-name="mic" d="M480 256c88.366 0 160 71.634 160 160v384c0 88.366-71.634 160-160 160s-160-71.634-160-160v-384c0-88.366 71.636-160 160-160zM704 512v-96c0-123.71-100.29-224-224-224-123.712 0-224 100.29-224 224v96h-64v-96c0-148.238 112.004-270.3 256-286.22v-129.78h-128v-64h320v64h-128v129.78c143.994 15.92 256 137.982 256 286.22v96h-64z" />
<glyph unicode="&#xe954;" glyph-name="book" d="M896 832v-832h-672c-53.026 0-96 42.98-96 96s42.974 96 96 96h608v768h-640c-70.398 0-128-57.6-128-128v-768c0-70.4 57.602-128 128-128h768v896h-64zM224.056 128v0c-0.018-0.002-0.038 0-0.056 0-17.672 0-32-14.326-32-32s14.328-32 32-32c0.018 0 0.038 0.002 0.056 0.002v-0.002h607.89v64h-607.89z" />
<glyph unicode="&#xe955;" glyph-name="books" horiz-adv-x="1152" d="M224 832h-192c-17.6 0-32-14.4-32-32v-704c0-17.6 14.4-32 32-32h192c17.6 0 32 14.4 32 32v704c0 17.6-14.4 32-32 32zM192 640h-128v64h128v-64zM544 832h-192c-17.6 0-32-14.4-32-32v-704c0-17.6 14.4-32 32-32h192c17.6 0 32 14.4 32 32v704c0 17.6-14.4 32-32 32zM512 640h-128v64h128v-64zM765.088 782.52l-171.464-86.394c-15.716-7.918-22.096-27.258-14.178-42.976l287.978-571.548c7.918-15.718 27.258-22.098 42.976-14.178l171.464 86.392c15.716 7.92 22.096 27.26 14.178 42.974l-287.978 571.55c-7.92 15.718-27.26 22.1-42.976 14.18z" />
<glyph unicode="&#xe956;" glyph-name="library" horiz-adv-x="1088" d="M1024 0v64h-64v384h64v64h-192v-64h64v-384h-192v384h64v64h-192v-64h64v-384h-192v384h64v64h-192v-64h64v-384h-192v384h64v64h-192v-64h64v-384h-64v-64h-64v-64h1088v64h-64zM512 960h64l512-320v-64h-1088v64l512 320z" />
<glyph unicode="&#xe957;" glyph-name="file-text" d="M864 960h-768c-52.8 0-96-43.2-96-96v-832c0-52.8 43.2-96 96-96h768c52.8 0 96 43.2 96 96v832c0 52.8-43.2 96-96 96zM832 64h-704v768h704v-768zM256 512h448v-64h-448zM256 384h448v-64h-448zM256 256h448v-64h-448zM256 640h448v-64h-448z" />
<glyph unicode="&#xe958;" glyph-name="profile" d="M864 960h-768c-52.8 0-96-43.2-96-96v-832c0-52.8 43.2-96 96-96h768c52.8 0 96 43.2 96 96v832c0 52.8-43.2 96-96 96zM832 64h-704v768h704v-768zM256 384h448v-64h-448zM256 256h448v-64h-448zM320 672c0 53.019 42.981 96 96 96s96-42.981 96-96c0-53.019-42.981-96-96-96s-96 42.981-96 96zM480 576h-128c-52.8 0-96-28.8-96-64v-64h320v64c0 35.2-43.2 64-96 64z" />
<glyph unicode="&#xe959;" glyph-name="file-empty" d="M917.806 730.924c-22.212 30.292-53.174 65.7-87.178 99.704s-69.412 64.964-99.704 87.178c-51.574 37.82-76.592 42.194-90.924 42.194h-496c-44.112 0-80-35.888-80-80v-864c0-44.112 35.888-80 80-80h736c44.112 0 80 35.888 80 80v624c0 14.332-4.372 39.35-42.194 90.924zM785.374 785.374c30.7-30.7 54.8-58.398 72.58-81.374h-153.954v153.946c22.984-17.78 50.678-41.878 81.374-72.572zM896 16c0-8.672-7.328-16-16-16h-736c-8.672 0-16 7.328-16 16v864c0 8.672 7.328 16 16 16 0 0 495.956 0.002 496 0v-224c0-17.672 14.326-32 32-32h224v-624z" />
<glyph unicode="&#xe95a;" glyph-name="files-empty" d="M917.806 602.924c-22.21 30.292-53.174 65.7-87.178 99.704s-69.412 64.964-99.704 87.178c-51.574 37.82-76.592 42.194-90.924 42.194h-368c-44.114 0-80-35.888-80-80v-736c0-44.112 35.886-80 80-80h608c44.112 0 80 35.888 80 80v496c0 14.332-4.372 39.35-42.194 90.924zM785.374 657.374c30.7-30.7 54.8-58.398 72.58-81.374h-153.954v153.946c22.982-17.78 50.678-41.878 81.374-72.572v0zM896 16c0-8.672-7.328-16-16-16h-608c-8.672 0-16 7.328-16 16v736c0 8.672 7.328 16 16 16 0 0 367.956 0.002 368 0v-224c0-17.672 14.324-32 32-32h224v-496zM602.924 917.804c-51.574 37.822-76.592 42.196-90.924 42.196h-368c-44.112 0-80-35.888-80-80v-736c0-38.632 27.528-70.958 64-78.39v814.39c0 8.672 7.328 16 16 16h486.876c-9.646 7.92-19.028 15.26-27.952 21.804z" />
<glyph unicode="&#xe95b;" glyph-name="file-text2" d="M917.806 730.924c-22.212 30.292-53.174 65.7-87.178 99.704s-69.412 64.964-99.704 87.178c-51.574 37.82-76.592 42.194-90.924 42.194h-496c-44.112 0-80-35.888-80-80v-864c0-44.112 35.888-80 80-80h736c44.112 0 80 35.888 80 80v624c0 14.332-4.372 39.35-42.194 90.924zM785.374 785.374c30.7-30.7 54.8-58.398 72.58-81.374h-153.954v153.946c22.984-17.78 50.678-41.878 81.374-72.572zM896 16c0-8.672-7.328-16-16-16h-736c-8.672 0-16 7.328-16 16v864c0 8.672 7.328 16 16 16 0 0 495.956 0.002 496 0v-224c0-17.672 14.326-32 32-32h224v-624zM736 128h-448c-17.672 0-32 14.326-32 32s14.328 32 32 32h448c17.674 0 32-14.326 32-32s-14.326-32-32-32zM736 256h-448c-17.672 0-32 14.326-32 32s14.328 32 32 32h448c17.674 0 32-14.326 32-32s-14.326-32-32-32zM736 384h-448c-17.672 0-32 14.326-32 32s14.328 32 32 32h448c17.674 0 32-14.326 32-32s-14.326-32-32-32z" />
<glyph unicode="&#xe95c;" glyph-name="file-picture" d="M832 64h-640v128l192 320 263-320 185 128v-256zM832 480c0-53.020-42.98-96-96-96-53.022 0-96 42.98-96 96s42.978 96 96 96c53.020 0 96-42.98 96-96zM917.806 730.924c-22.212 30.292-53.174 65.7-87.178 99.704s-69.412 64.964-99.704 87.178c-51.574 37.82-76.592 42.194-90.924 42.194h-496c-44.112 0-80-35.888-80-80v-864c0-44.112 35.888-80 80-80h736c44.112 0 80 35.888 80 80v624c0 14.332-4.372 39.35-42.194 90.924zM785.374 785.374c30.7-30.7 54.8-58.398 72.58-81.374h-153.954v153.946c22.984-17.78 50.678-41.878 81.374-72.572zM896 16c0-8.672-7.328-16-16-16h-736c-8.672 0-16 7.328-16 16v864c0 8.672 7.328 16 16 16 0 0 495.956 0.002 496 0v-224c0-17.672 14.326-32 32-32h224v-624z" />
<glyph unicode="&#xe95d;" glyph-name="file-music" d="M917.806 730.924c-22.21 30.292-53.174 65.7-87.178 99.704s-69.412 64.964-99.704 87.178c-51.574 37.82-76.592 42.194-90.924 42.194h-496c-44.112 0-80-35.888-80-80v-864c0-44.112 35.886-80 80-80h736c44.112 0 80 35.888 80 80v624c0 14.332-4.372 39.35-42.194 90.924v0zM785.374 785.374c30.7-30.7 54.8-58.398 72.58-81.374h-153.954v153.946c22.982-17.78 50.678-41.878 81.374-72.572v0zM896 16c0-8.672-7.328-16-16-16h-736c-8.672 0-16 7.328-16 16v864c0 8.672 7.328 16 16 16 0 0 495.956 0.002 496 0v-224c0-17.672 14.324-32 32-32h224v-624zM756.288 568.748c-7.414 6.080-17.164 8.514-26.562 6.632l-320-64c-14.958-2.994-25.726-16.126-25.726-31.38v-236.876c-18.832 8.174-40.678 12.876-64 12.876-70.692 0-128-42.98-128-96s57.308-96 128-96 128 42.98 128 96v229.766l256 51.202v-133.842c-18.832 8.174-40.678 12.876-64 12.876-70.692 0-128-42.98-128-96s57.308-96 128-96 128 42.98 128 96v319.998c0 9.586-4.298 18.668-11.712 24.748z" />
<glyph unicode="&#xe95e;" glyph-name="file-play" d="M384 576l320-224-320-224v448zM917.806 730.924c-22.212 30.292-53.174 65.7-87.178 99.704s-69.412 64.964-99.704 87.178c-51.574 37.82-76.592 42.194-90.924 42.194h-496c-44.112 0-80-35.888-80-80v-864c0-44.112 35.888-80 80-80h736c44.112 0 80 35.888 80 80v624c0 14.332-4.372 39.35-42.194 90.924zM785.374 785.374c30.7-30.7 54.8-58.398 72.58-81.374h-153.954v153.946c22.984-17.78 50.678-41.878 81.374-72.572zM896 16c0-8.672-7.328-16-16-16h-736c-8.672 0-16 7.328-16 16v864c0 8.672 7.328 16 16 16 0 0 495.956 0.002 496 0v-224c0-17.672 14.326-32 32-32h224v-624z" />
<glyph unicode="&#xe95f;" glyph-name="file-video" d="M917.806 730.924c-22.208 30.292-53.174 65.7-87.178 99.704s-69.412 64.964-99.704 87.178c-51.574 37.82-76.594 42.194-90.924 42.194h-496c-44.112 0-80-35.888-80-80v-864c0-44.112 35.882-80 80-80h736c44.112 0 80 35.888 80 80v624c0 14.332-4.372 39.35-42.194 90.924v0 0zM785.374 785.374c30.7-30.7 54.8-58.398 72.58-81.374h-153.954v153.946c22.98-17.78 50.678-41.878 81.374-72.572v0 0zM896 16c0-8.672-7.328-16-16-16h-736c-8.672 0-16 7.328-16 16v864c0 8.672 7.328 16 16 16 0 0 495.956 0.002 496 0v-224c0-17.672 14.32-32 32-32h224v-624zM256 448h320v-320h-320v320zM576 320l192 128v-320l-192 128z" />
<glyph unicode="&#xe960;" glyph-name="file-zip" d="M917.806 730.924c-22.208 30.292-53.174 65.7-87.178 99.704s-69.412 64.964-99.704 87.178c-51.574 37.82-76.592 42.194-90.924 42.194h-496c-44.112 0-80-35.888-80-80v-864c0-44.112 35.884-80 80-80h736c44.112 0 80 35.888 80 80v624c0 14.332-4.372 39.35-42.194 90.924v0 0zM785.374 785.374c30.7-30.7 54.8-58.398 72.58-81.374h-153.954v153.946c22.98-17.78 50.678-41.878 81.374-72.572v0 0zM896 16c0-8.672-7.328-16-16-16h-736c-8.672 0-16 7.328-16 16v864c0 8.672 7.328 16 16 16 0 0 495.956 0.002 496 0v-224c0-17.672 14.322-32 32-32h224v-624zM256 896h128v-64h-128v64zM384 832h128v-64h-128v64zM256 768h128v-64h-128v64zM384 704h128v-64h-128v64zM256 640h128v-64h-128v64zM384 576h128v-64h-128v64zM256 512h128v-64h-128v64zM384 448h128v-64h-128v64zM256 112c0-26.4 21.6-48 48-48h160c26.4 0 48 21.6 48 48v160c0 26.4-21.6 48-48 48h-80v64h-128v-272zM448 192v-64h-128v64h128z" />
<glyph unicode="&#xe961;" glyph-name="copy" d="M640 704v256h-448l-192-192v-576h384v-256h640v768h-384zM192 869.49v-101.49h-101.49l101.49 101.49zM64 256v448h192v192h320v-192l-192-192v-256h-320zM576 613.49v-101.49h-101.49l101.49 101.49zM960 0h-512v448h192v192h320v-640z" />
<glyph unicode="&#xe962;" glyph-name="paste" d="M704 832h-128v64c0 35.2-28.8 64-64 64h-128c-35.204 0-64-28.8-64-64v-64h-128v-128h512v128zM512 832h-128v63.886c0.034 0.038 0.072 0.078 0.114 0.114h127.768c0.042-0.036 0.082-0.076 0.118-0.114v-63.886zM832 640v160c0 17.6-14.4 32-32 32h-64v-64h32v-128h-192l-192-192v-256h-256v576h32v64h-64c-17.602 0-32-14.4-32-32v-640c0-17.6 14.398-32 32-32h288v-192h640v704h-192zM576 549.49v-101.49h-101.49l101.49 101.49zM960 0h-512v384h192v192h320v-576z" />
<glyph unicode="&#xe963;" glyph-name="stack" d="M1024 640l-512 256-512-256 512-256 512 256zM512 811.030l342.058-171.030-342.058-171.030-342.058 171.030 342.058 171.030zM921.444 499.278l102.556-51.278-512-256-512 256 102.556 51.278 409.444-204.722zM921.444 307.278l102.556-51.278-512-256-512 256 102.556 51.278 409.444-204.722z" />
<glyph unicode="&#xe964;" glyph-name="folder" d="M448 832l128-128h448v-704h-1024v832z" />
<glyph unicode="&#xe965;" glyph-name="folder-open" d="M832 0l192 512h-832l-192-512zM128 576l-128-576v832h288l128-128h416v-128z" />
<glyph unicode="&#xe966;" glyph-name="folder-plus" d="M576 704l-128 128h-448v-832h1024v704h-448zM704 256h-128v-128h-128v128h-128v128h128v128h128v-128h128v-128z" />
<glyph unicode="&#xe967;" glyph-name="folder-minus" d="M576 704l-128 128h-448v-832h1024v704h-448zM704 256h-384v128h384v-128z" />
<glyph unicode="&#xe968;" glyph-name="folder-download" d="M576 704l-128 128h-448v-832h1024v704h-448zM512 96l-224 224h160v256h128v-256h160l-224-224z" />
<glyph unicode="&#xe969;" glyph-name="folder-upload" d="M576 704l-128 128h-448v-832h1024v704h-448zM512 480l224-224h-160v-256h-128v256h-160l224 224z" />
<glyph unicode="&#xe96a;" glyph-name="price-tag" d="M976 960h-384c-26.4 0-63.274-15.274-81.942-33.942l-476.116-476.116c-18.668-18.668-18.668-49.214 0-67.882l412.118-412.118c18.668-18.668 49.214-18.668 67.882 0l476.118 476.118c18.666 18.666 33.94 55.54 33.94 81.94v384c0 26.4-21.6 48-48 48zM736 576c-53.020 0-96 42.98-96 96s42.98 96 96 96 96-42.98 96-96-42.98-96-96-96z" />
<glyph unicode="&#xe96b;" glyph-name="price-tags" horiz-adv-x="1280" d="M1232 960h-384c-26.4 0-63.274-15.274-81.942-33.942l-476.116-476.116c-18.668-18.668-18.668-49.214 0-67.882l412.118-412.118c18.668-18.668 49.214-18.668 67.882 0l476.118 476.118c18.666 18.666 33.94 55.54 33.94 81.94v384c0 26.4-21.6 48-48 48zM992 576c-53.020 0-96 42.98-96 96s42.98 96 96 96 96-42.98 96-96-42.98-96-96-96zM128 416l544 544h-80c-26.4 0-63.274-15.274-81.942-33.942l-476.116-476.116c-18.668-18.668-18.668-49.214 0-67.882l412.118-412.118c18.668-18.668 49.214-18.668 67.882 0l30.058 30.058-416 416z" />
<glyph unicode="&#xe96c;" glyph-name="barcode" d="M0 832h128v-640h-128zM192 832h64v-640h-64zM320 832h64v-640h-64zM512 832h64v-640h-64zM768 832h64v-640h-64zM960 832h64v-640h-64zM640 832h32v-640h-32zM448 832h32v-640h-32zM864 832h32v-640h-32zM0 128h64v-64h-64zM192 128h64v-64h-64zM320 128h64v-64h-64zM640 128h64v-64h-64zM960 128h64v-64h-64zM768 128h128v-64h-128zM448 128h128v-64h-128z" />
<glyph unicode="&#xe96d;" glyph-name="qrcode" d="M320 896h-256v-256h256v256zM384 960v0-384h-384v384h384zM128 832h128v-128h-128zM960 896h-256v-256h256v256zM1024 960v0-384h-384v384h384zM768 832h128v-128h-128zM320 256h-256v-256h256v256zM384 320v0-384h-384v384h384zM128 192h128v-128h-128zM448 960h64v-64h-64zM512 896h64v-64h-64zM448 832h64v-64h-64zM512 768h64v-64h-64zM448 704h64v-64h-64zM512 640h64v-64h-64zM448 576h64v-64h-64zM448 448h64v-64h-64zM512 384h64v-64h-64zM448 320h64v-64h-64zM512 256h64v-64h-64zM448 192h64v-64h-64zM512 128h64v-64h-64zM448 64h64v-64h-64zM512 0h64v-64h-64zM960 448h64v-64h-64zM64 448h64v-64h-64zM128 512h64v-64h-64zM0 512h64v-64h-64zM256 512h64v-64h-64zM320 448h64v-64h-64zM384 512h64v-64h-64zM576 448h64v-64h-64zM640 512h64v-64h-64zM704 448h64v-64h-64zM768 512h64v-64h-64zM832 448h64v-64h-64zM896 512h64v-64h-64zM960 320h64v-64h-64zM576 320h64v-64h-64zM640 384h64v-64h-64zM704 320h64v-64h-64zM832 320h64v-64h-64zM896 384h64v-64h-64zM960 192h64v-64h-64zM576 192h64v-64h-64zM640 256h64v-64h-64zM768 256h64v-64h-64zM832 192h64v-64h-64zM896 256h64v-64h-64zM960 64h64v-64h-64zM640 128h64v-64h-64zM704 64h64v-64h-64zM768 128h64v-64h-64zM832 64h64v-64h-64zM640 0h64v-64h-64zM768 0h64v-64h-64zM896 0h64v-64h-64z" />
<glyph unicode="&#xe96e;" glyph-name="ticket" d="M575.996 640l127.998-127.998-255.994-255.994-127.998 127.998zM1001.526 662.496l-73.516 73.516-32.008-32.008c-16.378-16.38-39.010-26.51-64-26.51-49.988 0-90.514 40.522-90.514 90.51 0 25.002 10.14 47.638 26.534 64.018l31.988 31.986-73.518 73.516c-29.968 29.968-79.008 29.968-108.976 0l-595.040-595.038c-29.966-29.968-29.966-79.010 0-108.976l73.52-73.518 31.962 31.964c16.382 16.406 39.030 26.552 64.044 26.552 49.988 0 90.51-40.524 90.51-90.51 0-25.006-10.14-47.64-26.534-64.022l-31.984-31.986 73.516-73.518c29.966-29.966 79.008-29.966 108.976 0l595.040 595.040c29.964 29.976 29.964 79.016 0 108.984zM448.002 128.004l-256 256 384 384 256-256-384-384z" />
<glyph unicode="&#xe96f;" glyph-name="cart" d="M384 32c0-53.019-42.981-96-96-96s-96 42.981-96 96c0 53.019 42.981 96 96 96s96-42.981 96-96zM1024 32c0-53.019-42.981-96-96-96s-96 42.981-96 96c0 53.019 42.981 96 96 96s96-42.981 96-96zM1024 448v384h-768c0 35.346-28.654 64-64 64h-192v-64h128l48.074-412.054c-29.294-23.458-48.074-59.5-48.074-99.946 0-70.696 57.308-128 128-128h768v64h-768c-35.346 0-64 28.654-64 64 0 0.218 0.014 0.436 0.016 0.656l831.984 127.344z" />
<glyph unicode="&#xe970;" glyph-name="coin-dollar" d="M480 896c-265.096 0-480-214.904-480-480 0-265.098 214.904-480 480-480 265.098 0 480 214.902 480 480 0 265.096-214.902 480-480 480zM480 32c-212.078 0-384 171.922-384 384s171.922 384 384 384c212.078 0 384-171.922 384-384s-171.922-384-384-384zM512 448v128h128v64h-128v64h-64v-64h-128v-256h128v-128h-128v-64h128v-64h64v64h128.002l-0.002 256h-128zM448 448h-64v128h64v-128zM576.002 256h-64.002v128h64.002v-128z" />
<glyph unicode="&#xe971;" glyph-name="coin-euro" d="M480 896c-265.096 0-480-214.904-480-480s214.904-480 480-480c265.098 0 480 214.902 480 480s-214.902 480-480 480zM480 32c-212.078 0-384 171.922-384 384s171.922 384 384 384c212.076 0 384-171.922 384-384s-171.924-384-384-384zM670.824 315.66c-15.27 8.884-34.862 3.708-43.75-11.57-17.256-29.662-49.088-48.090-83.074-48.090h-128c-41.716 0-77.286 26.754-90.496 64h154.496c17.672 0 32 14.326 32 32s-14.328 32-32 32h-160v64h160c17.672 0 32 14.328 32 32s-14.328 32-32 32h-154.496c13.21 37.246 48.78 64 90.496 64h128c33.986 0 65.818-18.426 83.074-48.090 8.888-15.276 28.478-20.456 43.752-11.568 15.276 8.888 20.456 28.476 11.568 43.752-28.672 49.288-81.702 79.906-138.394 79.906h-128c-77.268 0-141.914-55.056-156.78-128h-35.22c-17.672 0-32-14.328-32-32s14.328-32 32-32h32v-64h-32c-17.672 0-32-14.326-32-32s14.328-32 32-32h35.22c14.866-72.944 79.512-128 156.78-128h128c56.692 0 109.72 30.62 138.394 79.91 8.888 15.276 3.708 34.864-11.57 43.75z" />
<glyph unicode="&#xe972;" glyph-name="coin-pound" d="M480 896c-265.096 0-480-214.904-480-480s214.904-480 480-480c265.098 0 480 214.902 480 480s-214.902 480-480 480zM480 32c-212.078 0-384 171.922-384 384s171.922 384 384 384c212.074 0 384-171.922 384-384s-171.926-384-384-384zM608 256h-224v128h96c17.672 0 32 14.326 32 32s-14.328 32-32 32h-96v32c0 52.934 43.066 96 96 96 34.17 0 66.042-18.404 83.18-48.030 8.85-15.298 28.426-20.526 43.722-11.676 15.296 8.848 20.526 28.424 11.676 43.722-28.538 49.336-81.638 79.984-138.578 79.984-88.224 0-160-71.776-160-160v-32h-32c-17.672 0-32-14.326-32-32s14.328-32 32-32h32v-192h288c17.674 0 32 14.326 32 32s-14.326 32-32 32z" />
<glyph unicode="&#xe973;" glyph-name="coin-yen" d="M480 896c-265.096 0-480-214.904-480-480s214.904-480 480-480c265.098 0 480 214.902 480 480s-214.902 480-480 480zM480 32c-212.078 0-384 171.922-384 384s171.922 384 384 384c212.076 0 384-171.922 384-384s-171.924-384-384-384zM608 384c17.674 0 32 14.326 32 32s-14.326 32-32 32h-68.208l94.832 142.25c9.804 14.704 5.83 34.572-8.876 44.376-14.704 9.802-34.572 5.83-44.376-8.876l-101.372-152.062-101.374 152.062c-9.804 14.706-29.672 18.68-44.376 8.876-14.706-9.804-18.678-29.672-8.876-44.376l94.834-142.25h-68.208c-17.672 0-32-14.326-32-32s14.328-32 32-32h96v-64h-96c-17.672 0-32-14.326-32-32s14.328-32 32-32h96v-96c0-17.674 14.328-32 32-32s32 14.326 32 32v96h96c17.674 0 32 14.326 32 32s-14.326 32-32 32h-96v64h96z" />
<glyph unicode="&#xe974;" glyph-name="credit-card" d="M928 832h-832c-52.8 0-96-43.2-96-96v-576c0-52.8 43.2-96 96-96h832c52.8 0 96 43.2 96 96v576c0 52.8-43.2 96-96 96zM96 768h832c17.346 0 32-14.654 32-32v-96h-896v96c0 17.346 14.654 32 32 32zM928 128h-832c-17.346 0-32 14.654-32 32v288h896v-288c0-17.346-14.654-32-32-32zM128 320h64v-128h-64zM256 320h64v-128h-64zM384 320h64v-128h-64z" />
<glyph unicode="&#xe975;" glyph-name="calculator" d="M384 896h-320c-35.2 0-64-28.8-64-64v-320c0-35.2 28.796-64 64-64h320c35.2 0 64 28.8 64 64v320c0 35.2-28.8 64-64 64zM384 640h-320v64h320v-64zM896 896h-320c-35.204 0-64-28.8-64-64v-832c0-35.2 28.796-64 64-64h320c35.2 0 64 28.8 64 64v832c0 35.2-28.8 64-64 64zM896 320h-320v64h320v-64zM896 512h-320v64h320v-64zM384 384h-320c-35.2 0-64-28.8-64-64v-320c0-35.2 28.796-64 64-64h320c35.2 0 64 28.8 64 64v320c0 35.2-28.8 64-64 64zM384 128h-128v-128h-64v128h-128v64h128v128h64v-128h128v-64z" />
<glyph unicode="&#xe976;" glyph-name="lifebuoy" d="M512 960c-282.77 0-512-229.23-512-512s229.23-512 512-512 512 229.23 512 512-229.23 512-512 512zM320 448c0 106.040 85.96 192 192 192s192-85.96 192-192-85.96-192-192-192-192 85.96-192 192zM925.98 276.524v0l-177.42 73.49c12.518 30.184 19.44 63.276 19.44 97.986s-6.922 67.802-19.44 97.986l177.42 73.49c21.908-52.822 34.020-110.73 34.020-171.476s-12.114-118.654-34.020-171.476v0zM683.478 861.98v0 0l-73.49-177.42c-30.184 12.518-63.276 19.44-97.988 19.44s-67.802-6.922-97.986-19.44l-73.49 177.422c52.822 21.904 110.732 34.018 171.476 34.018 60.746 0 118.654-12.114 171.478-34.020zM98.020 619.476l177.422-73.49c-12.518-30.184-19.442-63.276-19.442-97.986s6.922-67.802 19.44-97.986l-177.42-73.49c-21.906 52.822-34.020 110.73-34.020 171.476s12.114 118.654 34.020 171.476zM340.524 34.020l73.49 177.42c30.184-12.518 63.276-19.44 97.986-19.44s67.802 6.922 97.986 19.44l73.49-177.42c-52.822-21.904-110.73-34.020-171.476-34.020-60.744 0-118.654 12.114-171.476 34.020z" />
<glyph unicode="&#xe977;" glyph-name="phone" d="M704 320c-64-64-64-128-128-128s-128 64-192 128-128 128-128 192 64 64 128 128-128 256-192 256-192-192-192-192c0-128 131.5-387.5 256-512s384-256 512-256c0 0 192 128 192 192s-192 256-256 192z" />
<glyph unicode="&#xe978;" glyph-name="phone-hang-up" d="M1017.378 384.006c8.004-55.482 13.216-131.392-11.664-160.446-41.142-48.044-301.712-48.044-301.712 48.042 0 48.398 42.856 80.134 1.712 128.178-40.472 47.262-113.026 48.030-193.714 48.042-80.686-0.012-153.242-0.78-193.714-48.042-41.142-48.046 1.714-79.78 1.714-128.178 0-96.086-260.57-96.086-301.714-48.044-24.878 29.054-19.668 104.964-11.662 160.446 6.16 37.038 21.724 76.996 71.548 127.994 0 0.002 0.002 0.002 0.002 0.004 74.738 69.742 187.846 126.738 429.826 127.968v0.030c1.344 0 2.664-0.010 4-0.014 1.338 0.004 2.656 0.014 4 0.014v-0.028c241.98-1.23 355.088-58.226 429.826-127.968 0.002-0.002 0.002-0.004 0.002-0.004 49.824-50.996 65.39-90.954 71.55-127.994z" />
<glyph unicode="&#xe979;" glyph-name="address-book" d="M192 960v-1024h768v1024h-768zM576 703.67c70.51 0 127.67-57.16 127.67-127.67s-57.16-127.67-127.67-127.67-127.67 57.16-127.67 127.67 57.16 127.67 127.67 127.67v0zM768 192h-384v64c0 70.696 57.306 128 128 128v0h128c70.696 0 128-57.304 128-128v-64zM64 896h96v-192h-96v192zM64 640h96v-192h-96v192zM64 384h96v-192h-96v192zM64 128h96v-192h-96v192z" />
<glyph unicode="&#xe97a;" glyph-name="envelop" d="M928 832h-832c-52.8 0-96-43.2-96-96v-640c0-52.8 43.2-96 96-96h832c52.8 0 96 43.2 96 96v640c0 52.8-43.2 96-96 96zM398.74 409.628l-270.74-210.892v501.642l270.74-290.75zM176.38 704h671.24l-335.62-252-335.62 252zM409.288 398.302l102.712-110.302 102.71 110.302 210.554-270.302h-626.528l210.552 270.302zM625.26 409.628l270.74 290.75v-501.642l-270.74 210.892z" />
<glyph unicode="&#xe97b;" glyph-name="pushpin" d="M544 960l-96-96 96-96-224-256h-224l176-176-272-360.616v-39.384h39.384l360.616 272 176-176v224l256 224 96-96 96 96-480 480zM448 416l-64 64 224 224 64-64-224-224z" />
<glyph unicode="&#xe97c;" glyph-name="location" d="M512 960c-176.732 0-320-143.268-320-320 0-320 320-704 320-704s320 384 320 704c0 176.732-143.27 320-320 320zM512 448c-106.040 0-192 85.96-192 192s85.96 192 192 192 192-85.96 192-192-85.96-192-192-192z" />
<glyph unicode="&#xe97d;" glyph-name="location2" d="M512 960c-176.732 0-320-143.268-320-320 0-320 320-704 320-704s320 384 320 704c0 176.732-143.27 320-320 320zM512 444c-108.248 0-196 87.752-196 196s87.752 196 196 196 196-87.752 196-196-87.752-196-196-196zM388 640c0 68.483 55.517 124 124 124s124-55.517 124-124c0-68.483-55.517-124-124-124s-124 55.517-124 124z" />
<glyph unicode="&#xe97e;" glyph-name="compass" d="M544.010-64.004c-2.296 0-4.622 0.25-6.94 0.764-14.648 3.25-25.070 16.238-25.070 31.24v480h-480c-15.002 0-27.992 10.422-31.24 25.070-3.25 14.646 4.114 29.584 17.708 35.928l960 448c12.196 5.688 26.644 3.144 36.16-6.372 9.516-9.514 12.060-23.966 6.372-36.16l-448-960c-5.342-11.44-16.772-18.47-28.99-18.47zM176.242 512h367.758c17.674 0 32-14.328 32-32v-367.758l349.79 749.546-749.548-349.788z" />
<glyph unicode="&#xe97f;" glyph-name="compass2" d="M512 960c-282.77 0-512-229.23-512-512s229.23-512 512-512 512 229.23 512 512-229.23 512-512 512zM96 448c0 229.75 186.25 416 416 416 109.574 0 209.232-42.386 283.534-111.628l-411.534-176.372-176.372-411.534c-69.242 74.302-111.628 173.96-111.628 283.534zM585.166 374.834l-256.082-109.75 109.75 256.082 146.332-146.332zM512 32c-109.574 0-209.234 42.386-283.532 111.628l411.532 176.372 176.372 411.532c69.242-74.298 111.628-173.958 111.628-283.532 0-229.75-186.25-416-416-416z" />
<glyph unicode="&#xe980;" glyph-name="map" d="M0 768l320 128v-768l-320-128zM384 928l320-192v-736l-320 160zM768 736l256 192v-768l-256-192z" />
<glyph unicode="&#xe981;" glyph-name="map2" d="M672 768l-320 128-352-128v-768l352 128 320-128 352 128v768l-352-128zM384 814.27l256-102.4v-630.138l-256 102.398v630.14zM64 723.172l256 93.090v-631.8l-256-93.088v631.798zM960 172.828l-256-93.092v631.8l256 93.090v-631.798z" />
<glyph unicode="&#xe982;" glyph-name="history" horiz-adv-x="1088" d="M640 896c247.424 0 448-200.576 448-448s-200.576-448-448-448v96c94.024 0 182.418 36.614 248.902 103.098s103.098 154.878 103.098 248.902c0 94.022-36.614 182.418-103.098 248.902s-154.878 103.098-248.902 103.098c-94.022 0-182.418-36.614-248.902-103.098-51.14-51.138-84.582-115.246-97.306-184.902h186.208l-224-256-224 256h164.57c31.060 217.102 217.738 384 443.43 384zM832 512v-128h-256v320h128v-192z" />
<glyph unicode="&#xe983;" glyph-name="clock" d="M658.744 210.744l-210.744 210.746v282.51h128v-229.49l173.256-173.254zM512 960c-282.77 0-512-229.23-512-512s229.23-512 512-512 512 229.23 512 512-229.23 512-512 512zM512 64c-212.078 0-384 171.922-384 384s171.922 384 384 384c212.078 0 384-171.922 384-384s-171.922-384-384-384z" />
<glyph unicode="&#xe984;" glyph-name="clock2" d="M512 960c-282.77 0-512-229.23-512-512s229.23-512 512-512 512 229.23 512 512-229.23 512-512 512zM658.744 210.744l-210.744 210.746v282.51h128v-229.49l173.256-173.254-90.512-90.512z" />
</font>
</defs>
</svg>
